<svg width="631" height="253" viewBox="0 0 631 253" fill="none" xmlns="http://www.w3.org/2000/svg">
<path d="M104.497 249V192.65H0.316772V150.65L119.131 0.5H151.187V150.3H181.849V192.65H151.187V249H104.497ZM47.3549 150.3H109.724V71.2L47.3549 150.3Z" fill="url(#paint0_linear)"/>
<path d="M317.366 252.5C299.713 252.267 284.149 248.3 270.677 240.6C257.436 232.667 246.287 222.633 237.228 210.5C228.168 198.133 221.316 184.6 216.67 169.9C212.257 154.967 210.05 140.5 210.05 126.5C210.05 111.567 212.489 96.6333 217.367 81.7C222.477 66.5333 229.678 53 238.97 41.1C248.261 28.9667 259.527 19.1667 272.767 11.7C286.008 4.23333 300.874 0.5 317.366 0.5C335.02 0.5 350.584 4.58334 364.056 12.75C377.529 20.6833 388.795 30.8333 397.854 43.2C406.913 55.5667 413.649 69.2167 418.063 84.15C422.709 98.85 425.031 112.967 425.031 126.5C425.031 141.667 422.476 156.717 417.366 171.65C412.488 186.583 405.403 200.117 396.112 212.25C386.82 224.15 375.554 233.833 362.314 241.3C349.074 248.767 334.091 252.5 317.366 252.5ZM258.482 126.5C258.714 136.3 259.992 146.1 262.315 155.9C264.87 165.7 268.47 174.683 273.116 182.85C277.994 190.783 284.033 197.317 291.234 202.45C298.667 207.35 307.378 209.8 317.366 209.8C327.819 209.8 336.762 207.117 344.196 201.75C351.629 196.383 357.668 189.617 362.314 181.45C367.192 173.05 370.792 164.067 373.115 154.5C375.438 144.7 376.6 135.367 376.6 126.5C376.6 116.7 375.322 106.9 372.767 97.1C370.212 87.3 366.495 78.4333 361.617 70.5C356.739 62.3333 350.584 55.8 343.15 50.9C335.717 45.7667 327.123 43.2 317.366 43.2C307.146 43.2 298.319 45.8833 290.886 51.25C283.453 56.6167 277.297 63.5 272.419 71.9C267.773 80.0667 264.289 89.05 261.966 98.85C259.643 108.65 258.482 117.867 258.482 126.5Z" fill="url(#paint1_linear)"/>
<path d="M552.965 249V192.65H448.785V150.65L567.599 0.5H599.655V150.3H630.317V192.65H599.655V249H552.965ZM495.823 150.3H558.192V71.2L495.823 150.3Z" fill="url(#paint2_linear)"/>
<defs>
<linearGradient id="paint0_linear" x1="315.317" y1="0.500006" x2="155.078" y2="621.601" gradientUnits="userSpaceOnUse">
<stop stop-color="#340077"/>
<stop offset="1" stop-color="#FF0000"/>
</linearGradient>
<linearGradient id="paint1_linear" x1="315.317" y1="0.500006" x2="155.078" y2="621.601" gradientUnits="userSpaceOnUse">
<stop stop-color="#340077"/>
<stop offset="1" stop-color="#FF0000"/>
</linearGradient>
<linearGradient id="paint2_linear" x1="315.317" y1="0.500006" x2="155.078" y2="621.601" gradientUnits="userSpaceOnUse">
<stop stop-color="#340077"/>
<stop offset="1" stop-color="#FF0000"/>
</linearGradient>
</defs>
</svg>
