<svg width="30" height="30" viewBox="0 0 30 30" fill="none" xmlns="http://www.w3.org/2000/svg">
<path d="M26.7857 3.21428H23.5714V1.07145C23.5714 0.479694 23.0917 0 22.5 0C21.9082 0 21.4285 0.479694 21.4285 1.07145V3.21428H8.5714V1.07145C8.5714 0.479694 8.09171 0 7.50002 0C6.90832 0 6.42857 0.479694 6.42857 1.07145V3.21428H3.21428C1.43908 3.21428 0 4.65337 0 6.42857V26.7857C0 28.5609 1.43908 30 3.21428 30H26.7857C28.5609 30 30 28.5609 30 26.7857V6.42857C30 4.65337 28.5609 3.21428 26.7857 3.21428ZM27.8571 26.7857C27.8571 27.3775 27.3774 27.8572 26.7857 27.8572H3.21428C2.62253 27.8572 2.14283 27.3775 2.14283 26.7857V12.8571H27.8571V26.7857ZM27.8571 10.7143H2.14283V6.42857C2.14283 5.83681 2.62253 5.35712 3.21428 5.35712H6.42857V7.49995C6.42857 8.09171 6.90826 8.5714 7.50002 8.5714C8.09177 8.5714 8.57146 8.09171 8.57146 7.49995V5.35712H21.4286V7.49995C21.4286 8.09171 21.9083 8.5714 22.5 8.5714C23.0918 8.5714 23.5715 8.09171 23.5715 7.49995V5.35712H26.7858C27.3775 5.35712 27.8572 5.83681 27.8572 6.42857V10.7143H27.8571Z" fill="white"/>
<path d="M8.5714 15H6.42857C5.83681 15 5.35712 15.4797 5.35712 16.0714C5.35712 16.6632 5.83681 17.1429 6.42857 17.1429H8.5714C9.16316 17.1429 9.64285 16.6632 9.64285 16.0714C9.64285 15.4797 9.16316 15 8.5714 15Z" fill="white"/>
<path d="M16.0714 15H13.9286C13.3368 15 12.8571 15.4797 12.8571 16.0714C12.8571 16.6632 13.3368 17.1429 13.9286 17.1429H16.0714C16.6632 17.1429 17.1428 16.6632 17.1428 16.0714C17.1428 15.4797 16.6632 15 16.0714 15Z" fill="white"/>
<path d="M23.5715 15H21.4286C20.8369 15 20.3572 15.4797 20.3572 16.0714C20.3572 16.6632 20.8369 17.1429 21.4286 17.1429H23.5715C24.1632 17.1429 24.6429 16.6632 24.6429 16.0714C24.6428 15.4797 24.1632 15 23.5715 15Z" fill="white"/>
<path d="M8.5714 19.2847H6.42857C5.83681 19.2847 5.35712 19.7644 5.35712 20.3561C5.35712 20.9479 5.83681 21.4276 6.42857 21.4276H8.5714C9.16316 21.4276 9.64285 20.9479 9.64285 20.3561C9.64285 19.7644 9.16316 19.2847 8.5714 19.2847Z" fill="white"/>
<path d="M16.0714 19.2847H13.9286C13.3368 19.2847 12.8571 19.7644 12.8571 20.3561C12.8571 20.9479 13.3368 21.4276 13.9286 21.4276H16.0714C16.6632 21.4276 17.1428 20.9479 17.1428 20.3561C17.1428 19.7644 16.6632 19.2847 16.0714 19.2847Z" fill="white"/>
<path d="M23.5715 19.2847H21.4286C20.8369 19.2847 20.3572 19.7644 20.3572 20.3561C20.3572 20.9479 20.8369 21.4276 21.4286 21.4276H23.5715C24.1632 21.4276 24.6429 20.9479 24.6429 20.3561C24.6428 19.7644 24.1632 19.2847 23.5715 19.2847Z" fill="white"/>
<path d="M8.5714 23.5767H6.42857C5.83681 23.5767 5.35712 24.0564 5.35712 24.6481C5.35712 25.2399 5.83681 25.7195 6.42857 25.7195H8.5714C9.16316 25.7195 9.64285 25.2398 9.64285 24.648C9.64285 24.0563 9.16316 23.5767 8.5714 23.5767Z" fill="white"/>
<path d="M16.0714 23.5767H13.9286C13.3368 23.5767 12.8571 24.0564 12.8571 24.6481C12.8571 25.2399 13.3368 25.7196 13.9286 25.7196H16.0714C16.6632 25.7196 17.1428 25.2399 17.1428 24.6481C17.1428 24.0564 16.6632 23.5767 16.0714 23.5767Z" fill="white"/>
<path d="M23.5715 23.5767H21.4286C20.8369 23.5767 20.3572 24.0564 20.3572 24.6481C20.3572 25.2399 20.8369 25.7196 21.4286 25.7196H23.5715C24.1632 25.7196 24.6429 25.2399 24.6429 24.6481C24.6429 24.0564 24.1632 23.5767 23.5715 23.5767Z" fill="white"/>
</svg>
