<svg width="80" height="80" viewBox="0 0 80 80" fill="none" xmlns="http://www.w3.org/2000/svg">
<g clip-path="url(#clip0)">
<path d="M79.4253 17.0021L69.0906 3.69705C68.3762 2.77768 67.2986 2.25049 66.1341 2.25049C64.9695 2.25049 63.8919 2.77768 63.1773 3.69721L52.8414 17.0021C52.2006 17.8271 52.0881 18.9227 52.5473 19.8611C53.007 20.8 53.9419 21.3833 54.9872 21.3833H57.8309V77.3583C57.8309 78.7317 58.9489 79.8489 60.3231 79.8489H71.945C73.3192 79.8489 74.4372 78.7317 74.4372 77.3583V29.9755C74.4372 29.3283 73.9126 28.8036 73.2653 28.8036C72.618 28.8036 72.0934 29.3283 72.0934 29.9755V77.3583C72.0934 77.4392 72.0269 77.5052 71.945 77.5052H60.3231C60.2412 77.5052 60.1747 77.4392 60.1747 77.3583V20.2116C60.1747 19.5644 59.6502 19.0397 59.0028 19.0397H54.9872C54.7848 19.0397 54.6906 18.9089 54.6523 18.8308C54.6144 18.753 54.5689 18.5988 54.6923 18.4399L65.028 5.13533C65.2951 4.79158 65.6983 4.59439 66.1339 4.59439C66.5695 4.59439 66.9726 4.79158 67.2397 5.13502L77.5748 18.4406C77.6984 18.5996 77.6533 18.7535 77.6155 18.8311C77.5773 18.9091 77.4831 19.0397 77.2808 19.0397H73.2653C72.618 19.0397 72.0934 19.5644 72.0934 20.2116V25.2881C72.0934 25.9353 72.618 26.46 73.2653 26.46C73.9126 26.46 74.4372 25.9353 74.4372 25.2881V21.3835H77.2808C78.3265 21.3835 79.2617 20.7999 79.7209 19.8605C80.1803 18.9217 80.0667 17.8261 79.4253 17.0021Z" fill="white"/>
<path d="M16.8216 36.4842C16.1072 35.5649 15.0299 35.0376 13.8658 35.0376C12.7018 35.0376 11.6244 35.5649 10.9099 36.4843L0.573802 49.7892C-0.0674478 50.6149 -0.179948 51.7112 0.27974 52.6504C0.739115 53.589 1.67365 54.172 2.71818 54.172H5.56349V77.3579C5.56349 78.7312 6.68068 79.8485 8.05396 79.8485H19.6776C21.0508 79.8485 22.168 78.7312 22.168 77.3579V72.8423C22.168 72.1951 21.6435 71.6704 20.9962 71.6704C20.3488 71.6704 19.8243 72.1951 19.8243 72.8423V77.3579C19.8243 77.4388 19.7583 77.5048 19.6776 77.5048H8.05412C7.97318 77.5048 7.9074 77.4388 7.9074 77.3579V53.0001C7.9074 52.3529 7.38287 51.8282 6.73552 51.8282H2.71833C2.51693 51.8282 2.42286 51.6978 2.38474 51.6199C2.34646 51.5418 2.30083 51.3867 2.4249 51.2268L12.7607 37.9223C13.0279 37.5785 13.4307 37.3813 13.8658 37.3813C14.301 37.3813 14.7038 37.5785 14.9708 37.9221L25.3065 51.2267C25.4307 51.3865 25.3851 51.5417 25.3468 51.6199C25.3086 51.6978 25.2146 51.8282 25.0133 51.8282H20.9962C20.3488 51.8282 19.8243 52.3529 19.8243 53.0001V68.1548C19.8243 68.802 20.3488 69.3267 20.9962 69.3267C21.6435 69.3267 22.168 68.802 22.168 68.1548V54.172H25.0133C26.058 54.172 26.9922 53.589 27.4516 52.6504C27.9115 51.7112 27.7988 50.6148 27.1574 49.789L16.8216 36.4842Z" fill="white"/>
<path d="M42.9552 21.9386C42.241 21.019 41.1633 20.4917 39.9989 20.4917C38.8345 20.4917 37.7569 21.019 37.0427 21.9386L26.7071 35.2437C26.0658 36.069 25.9531 37.1648 26.4125 38.1036C26.8719 39.0423 27.8066 39.6255 28.8516 39.6255H31.6963V77.3583C31.6963 78.7319 32.8138 79.8494 34.1875 79.8494H45.8103C47.1839 79.8494 48.3014 78.7319 48.3014 77.3583V39.6253H51.1461C52.1911 39.6253 53.1258 39.0422 53.5852 38.1034C54.0445 37.1648 53.9319 36.0689 53.2906 35.2436L42.9552 21.9386ZM51.4803 37.0731C51.4422 37.1509 51.3481 37.2815 51.1463 37.2815H47.1297C46.4824 37.2815 45.9578 37.8062 45.9578 38.4534V77.3583C45.9578 77.4395 45.8917 77.5056 45.8105 77.5056H34.1877C34.1063 77.5056 34.0402 77.4395 34.0402 77.3583V38.4534C34.0402 37.8062 33.5156 37.2815 32.8683 37.2815H28.8517C28.6499 37.2815 28.5558 37.1509 28.5177 37.0731C28.4796 36.9953 28.4342 36.8409 28.558 36.6815L38.8936 23.3764C39.1606 23.0326 39.5636 22.8354 39.9989 22.8354C40.4342 22.8354 40.8372 23.0326 41.1042 23.3764L51.4399 36.6815C51.5638 36.8409 51.5185 36.9953 51.4803 37.0731Z" fill="white"/>
<path d="M7.50114 24.897C9.48036 26.1917 10.7468 26.5167 12.5599 26.5801V28.5101C12.5599 29.1573 13.0844 29.682 13.7318 29.682C14.3791 29.682 14.9036 29.1573 14.9036 28.5101V26.4975C18.2733 25.9618 20.2391 23.239 20.666 20.6996C21.1977 17.5361 19.5407 14.7846 16.4441 13.6901C13.5399 12.6636 11.8469 11.8695 10.7833 11.0351C10.0899 10.4914 9.79036 9.45793 10.0013 8.3384C10.1966 7.30152 10.9099 6.04168 12.3257 5.61527C15.0844 4.78449 16.921 6.15387 17.2611 6.43699C17.7583 6.85074 18.4974 6.78324 18.9114 6.28559C19.3254 5.78809 19.2575 5.04918 18.76 4.63527C18.4135 4.34715 17.0188 3.29434 14.9035 3.05637V1.32324C14.9035 0.676055 14.379 0.151367 13.7316 0.151367C13.0843 0.151367 12.5597 0.676055 12.5597 1.32324V3.15012C12.264 3.20574 11.9611 3.27715 11.6496 3.37105C9.62411 3.98105 8.10989 5.71809 7.69786 7.90418C7.32427 9.88684 7.95224 11.7932 9.33661 12.8792C10.6296 13.8932 12.4624 14.7684 15.6627 15.8998C18.6697 16.9628 18.4833 19.545 18.3546 20.3111C18.0379 22.195 16.4536 24.2309 13.7238 24.249C11.5293 24.2639 10.6632 24.165 8.78396 22.9357C8.24224 22.5812 7.51599 22.7332 7.16177 23.275C6.80755 23.8165 6.95943 24.5428 7.50114 24.897Z" fill="white"/>
</g>
<defs>
<clipPath id="clip0">
<rect width="80" height="80" fill="white"/>
</clipPath>
</defs>
</svg>
