<svg width="80" height="80" viewBox="0 0 80 80" fill="none" xmlns="http://www.w3.org/2000/svg">
<g clip-path="url(#clip0)">
<path d="M41.0444 43.6606C40.8964 43.6285 40.7445 43.6228 40.5946 43.6452C39.0921 43.4703 37.9586 42.1991 37.956 40.6869C37.956 39.9622 37.3685 39.3747 36.6438 39.3747C35.9191 39.3747 35.3316 39.9622 35.3316 40.6869C35.3354 43.2121 37.0244 45.4239 39.4592 46.0922V47.4044C39.4592 48.1291 40.0468 48.7167 40.7714 48.7167C41.4961 48.7167 42.0837 48.1291 42.0837 47.4044V46.1716C44.8939 45.5834 46.804 42.966 46.5086 40.1103C46.2126 37.2545 43.8066 35.0843 40.9355 35.0837C39.29 35.0837 37.956 33.7496 37.956 32.1042C37.956 30.4588 39.29 29.1248 40.9355 29.1248C42.5809 29.1248 43.9149 30.4588 43.9149 32.1042C43.9149 32.8289 44.5024 33.4165 45.2271 33.4165C45.9518 33.4165 46.5394 32.8289 46.5394 32.1042C46.5355 29.4529 44.678 27.1661 42.0837 26.6189V25.4245C42.0837 24.6999 41.4961 24.1123 40.7714 24.1123C40.0468 24.1123 39.4592 24.6999 39.4592 25.4245V26.699C36.7514 27.4384 35.0086 30.0673 35.3815 32.8494C35.7545 35.6315 38.1284 37.7081 40.9355 37.7075C42.5591 37.7075 43.8835 39.0075 43.913 40.6305C43.9431 42.2535 42.6667 43.6016 41.0444 43.6606Z" fill="white"/>
<path d="M21.9069 36.4964C21.9069 47.0058 30.4261 55.525 40.9355 55.525C51.4449 55.525 59.9641 47.0058 59.9641 36.4964C59.9641 25.987 51.4449 17.4678 40.9355 17.4678C30.4312 17.4793 21.919 25.9921 21.9069 36.4964ZM40.9355 20.0922C49.9955 20.0922 57.3397 27.4364 57.3397 36.4964C57.3397 45.5564 49.9955 52.9006 40.9355 52.9006C31.8755 52.9006 24.5313 45.5564 24.5313 36.4964C24.5416 27.4409 31.88 20.1025 40.9355 20.0922Z" fill="white"/>
<path d="M66.433 58.7605L56.1536 63.6173C54.7344 60.9775 52.0119 59.2975 49.0158 59.2129L39.5265 58.9521C38.024 58.9092 36.5496 58.5286 35.2137 57.8385L34.2481 57.3381C29.3042 54.761 23.4113 54.7674 18.4725 57.3547L18.5327 55.1673C18.5526 54.4426 17.9817 53.839 17.257 53.8191L6.85144 53.5327C6.12677 53.5129 5.52383 54.0838 5.50397 54.8084L4.8754 77.6431C4.85554 78.3677 5.42644 78.9713 6.15111 78.9912L16.5567 79.2776H16.5926C17.3038 79.2776 17.8856 78.7118 17.9048 78.0012L17.9349 76.9088L20.6382 75.4614C21.6993 74.8905 22.9397 74.7546 24.0988 75.0827L40.2416 79.6133C40.2698 79.6217 40.298 79.6281 40.3268 79.6345C41.4936 79.8786 42.6828 80.001 43.8746 80.0003C46.3991 80.0016 48.8941 79.4576 51.1886 78.4043C51.245 78.3786 51.2994 78.3485 51.3513 78.3146L74.7568 63.1752C75.3399 62.7978 75.5283 62.0321 75.1868 61.4273C73.4491 58.344 69.595 57.1696 66.433 58.7605ZM7.53511 76.4039L8.09127 56.1924L15.873 56.4064L15.3169 76.6185L7.53511 76.4039ZM50.0064 76.0604C47.1558 77.347 43.9719 77.702 40.9079 77.076L24.8088 72.5569C22.9968 72.0449 21.0572 72.257 19.3996 73.1483L18.0182 73.8883L18.3879 60.4501C22.7654 57.5386 28.3796 57.2394 33.0416 59.6684L34.0072 60.1689C35.6949 61.0403 37.5562 61.5208 39.4547 61.5759L48.9447 61.8367C51.6102 61.9136 53.8739 63.8115 54.4147 66.4231L40.2794 66.0329C39.5547 66.013 38.9518 66.5846 38.9313 67.3086C38.9114 68.0333 39.4829 68.6369 40.207 68.6567L55.8064 69.086H55.8429C56.5535 69.0854 57.1346 68.5196 57.1538 67.8097C57.1699 67.2394 57.1276 66.6685 57.027 66.1072L67.5703 61.1255C67.5806 61.121 67.5908 61.1159 67.6011 61.1107C69.0965 60.354 70.9047 60.6071 72.1349 61.7457L50.0064 76.0604Z" fill="white"/>
<path d="M42.2477 13.7784V1.31223C42.2477 0.587556 41.6602 0 40.9355 0C40.2108 0 39.6233 0.587556 39.6233 1.31223V13.7784C39.6233 14.5031 40.2108 15.0907 40.9355 15.0907C41.6602 15.0907 42.2477 14.5031 42.2477 13.7784Z" fill="white"/>
<path d="M52.0895 13.7783V7.87327C52.0895 7.14859 51.5019 6.56104 50.7773 6.56104C50.0526 6.56104 49.465 7.14859 49.465 7.87327V13.7783C49.465 14.503 50.0526 15.0905 50.7773 15.0905C51.5019 15.0905 52.0895 14.503 52.0895 13.7783Z" fill="white"/>
<path d="M32.406 13.7783V7.87327C32.406 7.14859 31.8185 6.56104 31.0938 6.56104C30.3691 6.56104 29.7816 7.14859 29.7816 7.87327V13.7783C29.7816 14.503 30.3691 15.0905 31.0938 15.0905C31.8185 15.0905 32.406 14.503 32.406 13.7783Z" fill="white"/>
</g>
<defs>
<clipPath id="clip0">
<rect width="80" height="80" fill="white"/>
</clipPath>
</defs>
</svg>
