<svg width="80" height="80" viewBox="0 0 80 80" fill="none" xmlns="http://www.w3.org/2000/svg">
<path d="M52.3352 21.5322H14.0244C13.3744 21.5322 12.8475 22.0591 12.8475 22.7091C12.8475 23.3591 13.3744 23.886 14.0244 23.886H52.3353C52.9853 23.886 53.5122 23.3591 53.5122 22.7091C53.5122 22.0591 52.9852 21.5322 52.3352 21.5322Z" fill="white"/>
<path d="M14.0244 15.7224H33.1797C33.8297 15.7224 34.3566 15.1955 34.3566 14.5455C34.3566 13.8955 33.8297 13.3687 33.1797 13.3687H14.0244C13.3744 13.3687 12.8475 13.8955 12.8475 14.5455C12.8475 15.1957 13.3744 15.7224 14.0244 15.7224Z" fill="white"/>
<path d="M52.3352 28.7651H14.0244C13.3744 28.7651 12.8475 29.292 12.8475 29.942C12.8475 30.592 13.3744 31.1189 14.0244 31.1189H52.3353C52.9853 31.1189 53.5122 30.592 53.5122 29.942C53.5121 29.292 52.9852 28.7651 52.3352 28.7651Z" fill="white"/>
<path d="M22.7523 71.8231H10.4919C8.47952 71.8231 6.84218 70.1859 6.84218 68.1736V6.00328C6.84218 3.99094 8.47952 2.35359 10.4919 2.35359H45.8131C45.9272 2.35359 46.0395 2.36406 46.1506 2.37906V9.71875C46.1506 13.0291 48.8437 15.722 52.1539 15.722H59.4934C59.5086 15.8333 59.5189 15.9456 59.5189 16.0597V36.1005C59.5189 36.7505 60.0458 37.2773 60.6958 37.2773C61.3458 37.2773 61.8727 36.7505 61.8727 36.1005V16.0598C61.8727 14.7689 61.3698 13.5552 60.457 12.6422L49.2305 1.41562C48.3177 0.502812 47.1041 0 45.8131 0H10.4919C7.18156 0 4.48859 2.69312 4.48859 6.00328V68.1736C4.48859 71.4837 7.18171 74.1767 10.4919 74.1767H22.7523C23.4023 74.1767 23.9292 73.6498 23.9292 72.9998C23.9292 72.3498 23.4023 71.8231 22.7523 71.8231ZM57.8547 13.3684H52.1541C50.1417 13.3684 48.5044 11.7311 48.5044 9.71875V4.01812L57.8547 13.3684Z" fill="white"/>
<path d="M75.1486 57.6136L65.177 40.7823C64.4503 39.5552 62.8687 39.1495 61.6409 39.8769L59.2155 41.3139C57.3328 42.4292 56.537 44.6863 57.1834 46.6864C56.3662 46.9825 55.4703 46.9778 54.6453 46.6589C52.7303 46.0564 51.2744 44.8444 48.8698 45.4525C44.787 46.492 44.9111 46.44 44.5417 46.5666C42.1511 45.2055 40.7141 44.8005 38.1762 45.7822L35.914 46.6567C34.8667 47.0614 33.7126 46.9655 32.7448 46.392L32.1275 46.0281C32.4287 44.2231 31.6283 42.3183 29.9333 41.3142C29.9333 41.3142 29.9333 41.3142 29.9331 41.3141L27.5078 39.8772C26.2834 39.152 24.6972 39.558 23.9719 40.7823L14 57.6137C13.2733 58.8406 13.6776 60.4226 14.9051 61.1497L17.3305 62.5865C18.0644 63.0214 18.8709 63.2281 19.6678 63.2281C20.5564 63.2281 21.4325 62.9706 22.1815 62.4856L22.687 62.7839L21.6198 64.2703C20.3481 66.0419 20.7522 68.5053 22.524 69.7772C23.3434 70.3653 24.3728 70.6339 25.4373 70.4667C25.6062 71.454 26.1472 72.3781 27.0231 73.0072C27.8458 73.5978 28.8705 73.8667 29.9369 73.6987C30.1062 74.6853 30.6469 75.6086 31.5223 76.2372C32.6989 77.0817 34.1617 77.1793 35.3806 76.6587C35.6473 77.3515 36.1109 77.9772 36.7576 78.4415C38.4464 79.6536 40.7726 79.3375 42.0848 77.7672L44.9208 79.4472C46.7962 80.5586 49.2161 79.9409 50.3281 78.0633C50.6125 77.5833 50.7889 77.0601 50.8534 76.5225L50.8598 76.5264C52.7325 77.6354 55.1578 77.0145 56.2672 75.1423C56.5884 74.6 56.7645 74.0117 56.8073 73.4222C58.458 73.8372 60.2569 73.1439 61.1678 71.6064C61.4667 71.102 61.64 70.5572 61.697 70.0089C63.4661 70.7031 65.5337 70.0322 66.5328 68.3459C67.0701 67.4389 67.2222 66.377 66.9608 65.3556C66.8112 64.7712 66.5362 64.2408 66.1587 63.7928L67.7219 62.8795C69.0442 63.4223 70.5533 63.3355 71.818 62.5864L74.243 61.1495C75.4705 60.423 75.8759 58.8412 75.1486 57.6136ZM18.5301 60.5617L16.1048 59.1247C15.997 59.0608 15.9612 58.9211 16.025 58.8133L25.9969 41.9816C26.0611 41.8733 26.2012 41.8381 26.3084 41.9019L28.7336 43.3386C29.8112 43.9772 30.1484 45.3594 29.5215 46.4173L21.6089 59.7736C20.9773 60.8398 19.5964 61.1931 18.5301 60.5617ZM23.8965 67.8651C23.1819 67.352 23.0184 66.358 23.5319 65.643L25.1005 63.458C25.6001 62.7619 26.5959 62.5714 27.3226 63.0931C28.0359 63.6051 28.1995 64.6019 27.6876 65.3151L26.1189 67.5001C25.6069 68.2137 24.6095 68.3769 23.8965 67.8651ZM28.3958 71.0953C27.6825 70.5831 27.5189 69.5861 28.0309 68.8729L29.5995 66.6881C29.5995 66.6881 29.5995 66.6881 29.5995 66.6879C29.5995 66.6879 29.5995 66.6878 29.5997 66.6878L31.3308 64.2765C31.5789 63.9311 31.9465 63.7026 32.3662 63.6339C32.4534 63.6195 32.5408 63.6125 32.6275 63.6125C32.9578 63.6125 33.2792 63.7153 33.553 63.9117C33.8983 64.1598 34.1267 64.5273 34.1955 64.947C34.2644 65.3669 34.1658 65.7883 33.9176 66.1337L30.6178 70.7303C30.105 71.4451 29.1108 71.6087 28.3958 71.0953ZM32.895 74.3251C32.182 73.8133 32.0183 72.817 32.5294 72.1039C32.5295 72.1036 32.5298 72.1033 32.53 72.1029L35.8298 67.5065C36.3415 66.7934 37.3391 66.6297 38.052 67.1415C38.7653 67.6536 38.9289 68.6504 38.4169 69.3637L36.9508 71.4061C36.9508 71.4061 36.9508 71.4061 36.9506 71.4062L35.117 73.9603C34.605 74.6736 33.6084 74.8375 32.895 74.3251ZM38.1303 76.5295C37.4175 76.0176 37.2536 75.0218 37.7644 74.3086L38.8626 72.7789C39.3745 72.0654 40.3719 71.9023 41.0848 72.414C41.798 72.9259 41.9617 73.9229 41.4497 74.6362L40.3523 76.1645C39.8405 76.8779 38.8433 77.0417 38.1303 76.5295ZM64.5083 67.1464C64.0605 67.9022 63.0817 68.1528 62.3258 67.7051C61.0458 66.9469 52.7889 62.0551 51.9086 61.5336C51.3492 61.2023 50.6275 61.3869 50.2962 61.9461C49.965 62.5053 50.1495 63.2272 50.7087 63.5584L58.5842 68.2242L58.5844 68.2244C59.3405 68.6722 59.5927 69.6479 59.1431 70.407C58.6951 71.1631 57.7159 71.4133 56.9603 70.9659C54.0475 69.2403 51.6823 67.839 49.0806 66.2976C48.5211 65.9664 47.7995 66.1509 47.4683 66.7101C47.137 67.2694 47.3216 67.9912 47.8808 68.3225L53.6836 71.7603L53.6848 71.7611C54.4414 72.2103 54.6911 73.1856 54.2425 73.9431C53.7945 74.6992 52.8156 74.9497 52.0595 74.5018L48.9453 72.657C48.945 72.6568 48.9445 72.6567 48.9442 72.6564C48.9439 72.6562 48.9436 72.6561 48.9433 72.6559L46.6706 71.3093C46.1112 70.9779 45.3895 71.1625 45.0583 71.7219C44.727 72.2811 44.9116 73.0029 45.4708 73.3342L47.7439 74.6809C47.7442 74.6811 47.7445 74.6814 47.7448 74.6815C48.5009 75.1293 48.7531 76.105 48.3036 76.864C47.8556 77.6201 46.8767 77.8706 46.1206 77.4228L43.4689 75.852C44.6056 74.0979 44.1733 71.7342 42.4575 70.5026C41.9536 70.1411 41.3925 69.9159 40.8186 69.8192C41.4273 68.1915 40.9025 66.2912 39.4245 65.2303C38.5495 64.6019 37.5019 64.3848 36.5131 64.5398C36.3372 63.5109 35.7745 62.6097 34.9256 62.0005C33.3291 60.8547 31.1594 61.0748 29.8192 62.4306C29.5469 61.9523 29.1709 61.5233 28.6953 61.1819C27.3686 60.2297 25.6461 60.2208 24.3326 61.0228L23.7934 60.7045L31.195 48.2109L31.5473 48.4187C33.1036 49.3406 35.0026 49.5328 36.7626 48.8522L39.0248 47.9776C40.3194 47.4773 41.0333 47.4447 42.3137 48.0489C41.4759 48.9902 40.9786 50.2259 40.9786 51.5578V56.7758C40.9786 58.1617 42.1053 59.29 43.4901 59.2909H43.4936C44.8826 59.2909 46.1889 58.7501 47.1716 57.7681C47.7444 57.1956 48.1672 56.5131 48.4206 55.7681C49.9401 56.668 62.4944 64.1022 63.9498 64.9645C64.3159 65.1814 64.5756 65.5278 64.6811 65.94C64.7866 66.3517 64.7251 66.7803 64.5083 67.1464ZM73.0439 59.1247L70.6184 60.5617C69.5522 61.193 68.1712 60.8394 67.54 59.7737L63.8312 53.5136C63.4998 52.9544 62.7776 52.7698 62.2189 53.1008C61.6597 53.432 61.475 54.1539 61.8061 54.7131L65.5148 60.9734C65.5847 61.0912 65.6605 61.2033 65.7389 61.3125L64.7078 61.9148C64.4994 62.0383 64.2989 62.1742 64.1072 62.3219L48.1192 52.8539C47.3359 52.3903 46.3428 52.9555 46.3428 53.8664C46.3305 53.9367 46.4644 55.1464 45.5076 56.1028C44.9695 56.6405 44.2542 56.9367 43.4934 56.9367C43.4928 56.9367 43.4922 56.9367 43.4916 56.9367C43.4036 56.9367 43.332 56.8642 43.332 56.7751V51.5572C43.332 50.1941 44.2698 49.0441 45.5381 48.723L49.4469 47.7337C50.8652 47.3753 51.6669 48.1327 53.7905 48.8514C55.2647 49.4217 56.8676 49.3866 58.2905 48.7789L59.0008 49.978C59.3322 50.5375 60.0541 50.7219 60.6131 50.3908C61.1723 50.0595 61.357 49.3376 61.0259 48.7784L59.6269 46.417C58.9939 45.3486 59.3466 43.9717 60.4148 43.3384L62.8401 41.9017C62.9461 41.8388 63.0862 41.8709 63.1519 41.9816L73.1234 58.813C73.1878 58.9215 73.1523 59.0605 73.0439 59.1247Z" fill="white"/>
</svg>
