<svg width="20" height="20" viewBox="0 0 20 20" fill="none" xmlns="http://www.w3.org/2000/svg">
<path d="M11.9143 10C11.9143 11.0571 11.0574 11.9141 10.0002 11.9141C8.94312 11.9141 8.08618 11.0571 8.08618 10C8.08618 8.94287 8.94312 8.08594 10.0002 8.08594C11.0574 8.08594 11.9143 8.94287 11.9143 10Z" fill="#FF003D"/>
<path d="M14.4761 6.61343C14.3841 6.36411 14.2373 6.13843 14.0466 5.95319C13.8614 5.76245 13.6358 5.61566 13.3864 5.52365C13.184 5.44507 12.8801 5.35153 12.3202 5.32605C11.7146 5.29843 11.533 5.29248 9.99982 5.29248C8.46646 5.29248 8.28488 5.29828 7.67941 5.3259C7.11957 5.35153 6.81546 5.44507 6.61328 5.52365C6.3638 5.61566 6.13812 5.76245 5.95303 5.95319C5.7623 6.13843 5.61551 6.36395 5.52335 6.61343C5.44476 6.81577 5.35123 7.11987 5.32574 7.67972C5.29813 8.28519 5.29218 8.46677 5.29218 10.0001C5.29218 11.5333 5.29813 11.7149 5.32574 12.3205C5.35123 12.8804 5.44476 13.1843 5.52335 13.3867C5.61551 13.6361 5.76215 13.8617 5.95288 14.0469C6.13812 14.2376 6.36365 14.3844 6.61313 14.4764C6.81546 14.5552 7.11957 14.6487 7.67941 14.6742C8.28488 14.7018 8.46631 14.7076 9.99967 14.7076C11.5332 14.7076 11.7148 14.7018 12.3201 14.6742C12.8799 14.6487 13.184 14.5552 13.3864 14.4764C13.8871 14.2833 14.283 13.8875 14.4761 13.3867C14.5547 13.1843 14.6483 12.8804 14.6739 12.3205C14.7015 11.7149 14.7073 11.5333 14.7073 10.0001C14.7073 8.46677 14.7015 8.28519 14.6739 7.67972C14.6484 7.11987 14.5549 6.81577 14.4761 6.61343ZM9.99982 12.9486C8.37125 12.9486 7.05106 11.6285 7.05106 9.99997C7.05106 8.3714 8.37125 7.05136 9.99982 7.05136C11.6282 7.05136 12.9484 8.3714 12.9484 9.99997C12.9484 11.6285 11.6282 12.9486 9.99982 12.9486ZM13.065 7.62387C12.6844 7.62387 12.3759 7.31534 12.3759 6.93478C12.3759 6.55423 12.6844 6.2457 13.065 6.2457C13.4456 6.2457 13.7541 6.55423 13.7541 6.93478C13.7539 7.31534 13.4456 7.62387 13.065 7.62387Z" fill="#FF003D"/>
<path d="M10 0C4.478 0 0 4.478 0 10C0 15.522 4.478 20 10 20C15.522 20 20 15.522 20 10C20 4.478 15.522 0 10 0ZM15.7076 12.3674C15.6798 12.9787 15.5826 13.396 15.4407 13.7613C15.1424 14.5326 14.5326 15.1424 13.7613 15.4407C13.3961 15.5826 12.9787 15.6796 12.3676 15.7076C11.7552 15.7355 11.5596 15.7422 10.0002 15.7422C8.44055 15.7422 8.24509 15.7355 7.6326 15.7076C7.02148 15.6796 6.604 15.5826 6.23886 15.4407C5.85556 15.2965 5.50858 15.0705 5.22171 14.7783C4.92966 14.4916 4.70367 14.1444 4.55948 13.7613C4.41757 13.3961 4.32037 12.9787 4.2926 12.3676C4.26437 11.7551 4.25781 11.5594 4.25781 10C4.25781 8.44055 4.26437 8.24493 4.29245 7.6326C4.32022 7.02133 4.41727 6.604 4.55917 6.23871C4.70337 5.85556 4.9295 5.50842 5.22171 5.22171C5.50842 4.9295 5.85556 4.70352 6.23871 4.55933C6.604 4.41742 7.02133 4.32037 7.6326 4.29245C8.24493 4.26453 8.44055 4.25781 10 4.25781C11.5594 4.25781 11.7551 4.26453 12.3674 4.2926C12.9787 4.32037 13.396 4.41742 13.7613 4.55917C14.1444 4.70337 14.4916 4.9295 14.7784 5.22171C15.0705 5.50858 15.2966 5.85556 15.4407 6.23871C15.5827 6.604 15.6798 7.02133 15.7077 7.6326C15.7356 8.24493 15.7422 8.44055 15.7422 10C15.7422 11.5594 15.7356 11.7551 15.7076 12.3674Z" fill="#FF003D"/>
</svg>
