<svg width="90" height="90" viewBox="0 0 90 90" fill="none" xmlns="http://www.w3.org/2000/svg">
<path d="M46.6595 57.4031L56.7282 67.5L46.6313 77.5969L50.6251 81.5625L64.6876 67.5L50.6251 53.4375L46.6595 57.4031Z" fill="url(#paint0_linear)"/>
<path d="M66.347 57.4031L76.4157 67.5L66.3188 77.5969L70.3126 81.5625L84.3751 67.5L70.3126 53.4375L66.347 57.4031Z" fill="url(#paint1_linear)"/>
<path d="M39.375 64.6875H11.25V22.2469L43.3969 44.4937C43.8677 44.8204 44.427 44.9954 45 44.9954C45.573 44.9954 46.1323 44.8204 46.6031 44.4937L78.75 22.2469V47.8125H84.375V19.6875C84.375 18.1957 83.7824 16.7649 82.7275 15.71C81.6726 14.6551 80.2418 14.0625 78.75 14.0625H11.25C9.75816 14.0625 8.32742 14.6551 7.27252 15.71C6.21763 16.7649 5.625 18.1957 5.625 19.6875V64.6875C5.625 66.1793 6.21763 67.6101 7.27252 68.665C8.32742 69.7199 9.75816 70.3125 11.25 70.3125H39.375V64.6875ZM72.5625 19.6875L45 38.7562L17.4375 19.6875H72.5625Z" fill="url(#paint2_linear)"/>
<defs>
<linearGradient id="paint0_linear" x1="55.6595" y1="53.4375" x2="55.6595" y2="81.5625" gradientUnits="userSpaceOnUse">
<stop stop-color="#FF0000"/>
<stop offset="1" stop-color="#822EED"/>
</linearGradient>
<linearGradient id="paint1_linear" x1="75.347" y1="53.4375" x2="75.347" y2="81.5625" gradientUnits="userSpaceOnUse">
<stop stop-color="#FF0000"/>
<stop offset="1" stop-color="#822EED"/>
</linearGradient>
<linearGradient id="paint2_linear" x1="45" y1="14.0625" x2="45" y2="70.3125" gradientUnits="userSpaceOnUse">
<stop stop-color="#FF0000"/>
<stop offset="1" stop-color="#822EED"/>
</linearGradient>
</defs>
</svg>
