<svg width="521" height="89" viewBox="0 0 521 89" fill="none" xmlns="http://www.w3.org/2000/svg">
<g opacity="0.05">
<path d="M97.2905 87.2112H81.3273V52.249C81.3273 47.2544 80.4537 43.6076 78.7065 41.3085C77.0387 39.0094 74.6959 37.8598 71.678 37.8598C68.5012 37.8598 65.523 39.0887 62.7434 41.5463C59.9637 43.9247 57.9782 47.0562 56.787 50.9409V87.2112H40.8238V52.249C40.8238 47.2544 39.9502 43.6076 38.203 41.3085C36.5352 39.0094 34.1924 37.8598 31.1744 37.8598C28.0771 37.8598 25.0989 39.049 22.2399 41.4274C19.4602 43.8058 17.4747 46.9373 16.2835 50.822V87.2112H0.320312V24.8977H14.7348V36.4328C17.0379 32.3896 20.175 29.2977 24.1459 27.1572C28.1963 24.9373 32.8025 23.8274 37.9647 23.8274C43.2064 23.8274 47.2567 25.0959 50.1158 27.6328C52.9749 30.1698 54.8015 33.3013 55.5957 37.0274C58.1371 32.7463 61.3535 29.4959 65.245 27.2761C69.1366 24.977 73.584 23.8274 78.5874 23.8274C82.3995 23.8274 85.5365 24.5409 87.9985 25.968C90.4605 27.395 92.3665 29.258 93.7166 31.5571C95.0667 33.8562 95.98 36.4725 96.4566 39.4058C97.0125 42.3391 97.2905 45.3121 97.2905 48.3247V87.2112Z" fill="white"/>
<path d="M140.017 88.4004C134.935 88.4004 130.368 87.5283 126.318 85.7842C122.267 84.04 118.813 81.7013 115.954 78.768C113.174 75.7553 111.03 72.3067 109.521 68.422C108.012 64.5373 107.257 60.4544 107.257 56.1734C107.257 51.813 108.012 47.6905 109.521 43.8058C111.03 39.9211 113.174 36.5121 115.954 33.5788C118.813 30.5662 122.267 28.1878 126.318 26.4436C130.368 24.6995 134.935 23.8274 140.017 23.8274C145.1 23.8274 149.627 24.6995 153.598 26.4436C157.648 28.1878 161.063 30.5662 163.843 33.5788C166.702 36.5121 168.886 39.9211 170.395 43.8058C171.904 47.6905 172.658 51.813 172.658 56.1734C172.658 60.4544 171.904 64.5373 170.395 68.422C168.886 72.3067 166.742 75.7553 163.962 78.768C161.182 81.7013 157.767 84.04 153.717 85.7842C149.667 87.5283 145.1 88.4004 140.017 88.4004ZM123.697 56.1734C123.697 58.9481 124.094 61.4851 124.888 63.7842C125.762 66.004 126.913 67.9463 128.343 69.6112C129.852 71.2761 131.599 72.5842 133.584 73.5355C135.57 74.4076 137.714 74.8436 140.017 74.8436C142.32 74.8436 144.465 74.4076 146.45 73.5355C148.436 72.5842 150.143 71.2761 151.573 69.6112C153.082 67.9463 154.233 65.9643 155.027 63.6653C155.901 61.3662 156.338 58.8292 156.338 56.0544C156.338 53.3589 155.901 50.8616 155.027 48.5625C154.233 46.2635 153.082 44.2815 151.573 42.6166C150.143 40.9517 148.436 39.6833 146.45 38.8112C144.465 37.8598 142.32 37.3842 140.017 37.3842C137.714 37.3842 135.57 37.8598 133.584 38.8112C131.599 39.7626 129.852 41.0707 128.343 42.7355C126.913 44.4004 125.762 46.3824 124.888 48.6815C124.094 50.9806 123.697 53.4779 123.697 56.1734Z" fill="white"/>
<path d="M209.284 88.4004C204.995 88.4004 201.024 87.568 197.371 85.9031C193.718 84.2382 190.581 81.9391 187.96 79.0058C185.339 76.0725 183.274 72.6635 181.765 68.7788C180.336 64.8148 179.621 60.5734 179.621 56.0544C179.621 51.5355 180.296 47.3337 181.646 43.449C183.076 39.5644 185.021 36.1553 187.483 33.222C189.945 30.2887 192.884 27.9896 196.299 26.3247C199.714 24.6598 203.446 23.8274 207.497 23.8274C212.103 23.8274 216.233 24.9373 219.886 27.1572C223.619 29.377 226.518 32.2707 228.582 35.8382V0.400391H244.546V68.8977C244.546 70.5626 244.824 71.7517 245.38 72.4653C245.935 73.1788 246.888 73.5752 248.239 73.6544V87.2112C245.459 87.7662 243.196 88.0436 241.448 88.0436C238.589 88.0436 236.246 87.3301 234.42 85.9031C232.593 84.4761 231.561 82.613 231.322 80.3139L230.965 76.3896C228.662 80.3535 225.525 83.3662 221.554 85.4274C217.662 87.4094 213.572 88.4004 209.284 88.4004ZM213.453 74.8436C214.962 74.8436 216.511 74.6058 218.099 74.1301C219.688 73.5752 221.157 72.822 222.507 71.8707C223.857 70.9193 225.048 69.8094 226.081 68.5409C227.193 67.2725 228.027 65.8851 228.582 64.3788V49.5139C227.947 47.7698 227.034 46.1842 225.843 44.7571C224.731 43.2508 223.42 41.9824 221.911 40.9517C220.482 39.8418 218.933 38.9698 217.265 38.3355C215.677 37.7013 214.089 37.3842 212.5 37.3842C210.118 37.3842 207.894 37.8995 205.829 38.9301C203.844 39.9608 202.136 41.3878 200.707 43.2112C199.277 44.9553 198.165 46.977 197.371 49.2761C196.577 51.5752 196.18 53.9535 196.18 56.4112C196.18 59.0274 196.616 61.4454 197.49 63.6653C198.364 65.8851 199.555 67.8274 201.064 69.4923C202.573 71.1571 204.36 72.4652 206.425 73.4166C208.569 74.368 210.912 74.8436 213.453 74.8436Z" fill="white"/>
<path d="M279.275 88.4004C272.842 88.4004 267.958 86.3391 264.622 82.2166C261.287 78.0941 259.619 71.9896 259.619 63.9031V24.8977H275.582V60.4544C275.582 70.0472 279.037 74.8436 285.946 74.8436C289.044 74.8436 292.022 73.9319 294.881 72.1085C297.819 70.2058 300.202 67.3517 302.029 63.5463V24.8977H317.992V68.8977C317.992 70.5626 318.27 71.7517 318.826 72.4653C319.461 73.1788 320.454 73.5752 321.804 73.6544V87.2112C320.215 87.5283 318.865 87.7265 317.753 87.8058C316.721 87.8851 315.768 87.9247 314.894 87.9247C312.035 87.9247 309.692 87.2905 307.866 86.022C306.119 84.6743 305.086 82.8508 304.769 80.5517L304.411 75.5571C301.631 79.8382 298.058 83.049 293.69 85.1896C289.322 87.3301 284.517 88.4004 279.275 88.4004Z" fill="white"/>
<path d="M333.736 0.400391H349.699V67.2328C349.699 69.5319 350.255 71.3157 351.367 72.5842C352.479 73.8526 354.067 74.4869 356.132 74.4869C357.085 74.4869 358.118 74.3283 359.23 74.0112C360.421 73.6941 361.533 73.2977 362.565 72.822L364.709 84.9517C362.565 85.9824 360.063 86.7752 357.204 87.3301C354.345 87.8851 351.764 88.1626 349.461 88.1626C344.458 88.1626 340.566 86.8544 337.786 84.2382C335.086 81.5427 333.736 77.7373 333.736 72.822V0.400391Z" fill="white"/>
<path d="M400.613 88.4004C395.609 88.4004 391.082 87.568 387.032 85.9031C382.982 84.1589 379.527 81.8202 376.668 78.8869C373.809 75.9535 371.585 72.5445 369.997 68.6599C368.488 64.7752 367.733 60.6923 367.733 56.4112C367.733 51.9716 368.488 47.8094 369.997 43.9247C371.506 39.9607 373.69 36.5121 376.549 33.5788C379.408 30.5662 382.862 28.1878 386.913 26.4436C391.043 24.6995 395.649 23.8274 400.732 23.8274C405.814 23.8274 410.341 24.6995 414.312 26.4436C418.363 28.1878 421.778 30.5265 424.557 33.4599C427.416 36.3932 429.561 39.8022 430.99 43.6869C432.499 47.5716 433.254 51.6148 433.254 55.8166C433.254 56.8472 433.214 57.8382 433.134 58.7896C433.134 59.7409 433.055 60.5337 432.896 61.168H384.649C384.888 63.6256 385.483 65.8058 386.436 67.7085C387.389 69.6112 388.62 71.2364 390.129 72.5842C391.638 73.9319 393.346 74.9625 395.252 75.6761C397.158 76.3896 399.143 76.7463 401.208 76.7463C404.385 76.7463 407.363 75.9932 410.143 74.4869C413.002 72.9013 414.948 70.84 415.98 68.3031L429.68 72.1085C427.377 76.8652 423.684 80.7896 418.601 83.8815C413.597 86.8941 407.601 88.4004 400.613 88.4004ZM416.814 50.822C416.417 46.1445 414.67 42.4184 411.572 39.6436C408.554 36.7896 404.861 35.3625 400.493 35.3625C398.349 35.3625 396.324 35.7589 394.418 36.5517C392.591 37.2653 390.963 38.2959 389.534 39.6436C388.104 40.9914 386.913 42.6166 385.96 44.5193C385.086 46.422 384.57 48.5229 384.411 50.822H416.814Z" fill="white"/>
<path d="M520.32 72.822V87.2112H471.954V72.822H488.87V36.7896C488.156 37.7409 487.004 38.7319 485.416 39.7626C483.907 40.7139 482.239 41.6256 480.412 42.4977C478.586 43.3698 476.68 44.0833 474.694 44.6382C472.788 45.1932 471.081 45.4707 469.572 45.4707V30.6058C471.001 30.6058 472.749 30.1698 474.813 29.2977C476.878 28.3463 478.903 27.2364 480.889 25.968C482.874 24.6995 484.582 23.4707 486.011 22.2815C487.52 21.013 488.473 20.022 488.87 19.3085H505.191V72.822H520.32Z" fill="white"/>
</g>
</svg>
