<svg width="531" height="87" viewBox="0 0 531 87" fill="none" xmlns="http://www.w3.org/2000/svg">
<g opacity="0.05">
<path d="M97.442 85.2382H81.4539V51.0707C81.4539 46.1896 80.579 42.6256 78.829 40.3788C77.1586 38.1319 74.8121 37.0085 71.7895 37.0085C68.6078 37.0085 65.6249 38.2094 62.8409 40.6112C60.0569 42.9355 58.0684 45.9959 56.8752 49.7923V85.2382H40.8871V51.0707C40.8871 46.1896 40.0122 42.6256 38.2622 40.3788C36.5918 38.1319 34.2453 37.0085 31.2227 37.0085C28.1205 37.0085 25.1377 38.1707 22.2741 40.495C19.4901 42.8193 17.5016 45.8797 16.3084 49.6761V85.2382H0.320312V24.3409H14.7573V35.6139C17.0641 31.6626 20.206 28.6409 24.1831 26.549C28.2398 24.3797 32.8533 23.295 38.0236 23.295C43.2734 23.295 47.3301 24.5346 50.1936 27.0139C53.0572 29.4932 54.8867 32.5535 55.6821 36.195C58.2275 32.0112 61.4489 28.8346 65.3465 26.6653C69.2441 24.4184 73.6985 23.295 78.7097 23.295C82.5278 23.295 85.6697 23.9923 88.1355 25.3869C90.6014 26.7815 92.5104 28.6022 93.8626 30.849C95.2148 33.0959 96.1296 35.6526 96.6068 38.5193C97.1636 41.386 97.442 44.2914 97.442 47.2355V85.2382Z" fill="white"/>
<path d="M140.236 86.4004C135.145 86.4004 130.571 85.5481 126.515 83.8436C122.458 82.1391 118.998 79.8535 116.134 76.9869C113.35 74.0427 111.203 70.6725 109.691 66.8761C108.18 63.0797 107.424 59.0896 107.424 54.9058C107.424 50.6445 108.18 46.6157 109.691 42.8193C111.203 39.0229 113.35 35.6914 116.134 32.8247C118.998 29.8806 122.458 27.5562 126.515 25.8517C130.571 24.1472 135.145 23.295 140.236 23.295C145.326 23.295 149.86 24.1472 153.838 25.8517C157.894 27.5562 161.315 29.8806 164.099 32.8247C166.962 35.6914 169.15 39.0229 170.661 42.8193C172.172 46.6157 172.928 50.6445 172.928 54.9058C172.928 59.0896 172.172 63.0797 170.661 66.8761C169.15 70.6725 167.002 74.0427 164.218 76.9869C161.434 79.8535 158.014 82.1391 153.957 83.8436C149.9 85.5481 145.326 86.4004 140.236 86.4004ZM123.89 54.9058C123.89 57.6175 124.287 60.0968 125.083 62.3436C125.958 64.513 127.111 66.4112 128.543 68.0382C130.054 69.6653 131.804 70.9436 133.793 71.8734C135.781 72.7256 137.929 73.1517 140.236 73.1517C142.542 73.1517 144.69 72.7256 146.679 71.8734C148.667 70.9436 150.377 69.6653 151.809 68.0382C153.321 66.4112 154.474 64.4743 155.269 62.2274C156.144 59.9806 156.582 57.5013 156.582 54.7896C156.582 52.1553 156.144 49.7148 155.269 47.468C154.474 45.2211 153.321 43.2842 151.809 41.6571C150.377 40.0301 148.667 38.7905 146.679 37.9382C144.69 37.0085 142.542 36.5436 140.236 36.5436C137.929 36.5436 135.781 37.0085 133.793 37.9382C131.804 38.868 130.054 40.1463 128.543 41.7734C127.111 43.4004 125.958 45.3373 125.083 47.5842C124.287 49.831 123.89 52.2716 123.89 54.9058Z" fill="white"/>
<path d="M209.61 86.4004C205.315 86.4004 201.338 85.5869 197.679 83.9598C194.02 82.3328 190.878 80.086 188.253 77.2193C185.628 74.3526 183.56 71.0211 182.049 67.2247C180.617 63.3508 179.901 59.2058 179.901 54.7896C179.901 50.3734 180.577 46.2671 181.93 42.4707C183.361 38.6743 185.31 35.3427 187.776 32.4761C190.242 29.6094 193.185 27.3626 196.605 25.7355C200.025 24.1085 203.764 23.295 207.821 23.295C212.434 23.295 216.57 24.3797 220.229 26.549C223.968 28.7184 226.871 31.5463 228.939 35.0328V0.400391H244.927V67.3409C244.927 68.968 245.206 70.1301 245.763 70.8274C246.319 71.5247 247.274 71.9121 248.626 71.9896V85.2382C245.842 85.7806 243.575 86.0517 241.825 86.0517C238.962 86.0517 236.615 85.3544 234.786 83.9598C232.956 82.5653 231.922 80.7445 231.684 78.4977L231.326 74.6626C229.019 78.5364 225.877 81.4806 221.9 83.495C218.002 85.4319 213.906 86.4004 209.61 86.4004ZM213.786 73.1517C215.298 73.1517 216.849 72.9193 218.44 72.4544C220.03 71.9121 221.502 71.1761 222.854 70.2463C224.206 69.3166 225.4 68.2319 226.434 66.9923C227.547 65.7526 228.382 64.3968 228.939 62.9247V48.3977C228.303 46.6932 227.388 45.1436 226.195 43.749C225.081 42.277 223.769 41.0373 222.258 40.0301C220.826 38.9454 219.275 38.0932 217.604 37.4734C216.014 36.8535 214.423 36.5436 212.832 36.5436C210.446 36.5436 208.218 37.0472 206.15 38.0544C204.162 39.0617 202.452 40.4562 201.02 42.2382C199.588 43.9427 198.474 45.9184 197.679 48.1653C196.884 50.4121 196.486 52.7364 196.486 55.1382C196.486 57.695 196.923 60.058 197.798 62.2274C198.673 64.3968 199.866 66.295 201.378 67.922C202.889 69.549 204.679 70.8274 206.747 71.7571C208.895 72.6869 211.241 73.1517 213.786 73.1517Z" fill="white"/>
<path d="M279.711 86.4004C273.268 86.4004 268.376 84.386 265.036 80.3571C261.695 76.3283 260.024 70.3625 260.024 62.4599V24.3409H276.012V59.0896C276.012 68.4644 279.473 73.1517 286.393 73.1517C289.495 73.1517 292.478 72.2607 295.341 70.4788C298.284 68.6193 300.671 65.8301 302.5 62.1112V24.3409H318.488V67.3409C318.488 68.968 318.767 70.1301 319.323 70.8274C319.96 71.5247 320.954 71.9121 322.306 71.9896V85.2382C320.715 85.5481 319.363 85.7418 318.25 85.8193C317.216 85.8968 316.261 85.9355 315.386 85.9355C312.523 85.9355 310.176 85.3157 308.347 84.0761C306.597 82.7589 305.563 80.977 305.244 78.7301L304.886 73.849C302.102 78.0328 298.523 81.1707 294.148 83.2626C289.773 85.3544 284.961 86.4004 279.711 86.4004Z" fill="white"/>
<path d="M334.257 0.400391H350.245V65.7139C350.245 67.9607 350.802 69.704 351.916 70.9436C353.029 72.1833 354.62 72.8031 356.688 72.8031C357.643 72.8031 358.677 72.6481 359.791 72.3382C360.984 72.0283 362.097 71.6409 363.131 71.1761L365.279 83.0301C363.131 84.0373 360.626 84.8121 357.762 85.3544C354.899 85.8968 352.314 86.168 350.007 86.168C344.996 86.168 341.098 84.8896 338.314 82.3328C335.61 79.6986 334.257 75.9797 334.257 71.1761V0.400391Z" fill="white"/>
<path d="M401.238 86.4004C396.227 86.4004 391.693 85.5869 387.636 83.9598C383.58 82.2553 380.12 79.9698 377.256 77.1031C374.393 74.2364 372.165 70.9049 370.575 67.1085C369.063 63.3121 368.308 59.322 368.308 55.1382C368.308 50.7995 369.063 46.7319 370.575 42.9355C372.086 39.0616 374.273 35.6914 377.137 32.8247C380 29.8806 383.46 27.5562 387.517 25.8517C391.653 24.1472 396.267 23.295 401.358 23.295C406.448 23.295 410.982 24.1472 414.959 25.8517C419.016 27.5562 422.436 29.8418 425.22 32.7085C428.084 35.5752 430.232 38.9067 431.663 42.7031C433.175 46.4995 433.93 50.4508 433.93 54.5571C433.93 55.5644 433.891 56.5328 433.811 57.4626C433.811 58.3923 433.731 59.1671 433.572 59.7869H385.25C385.489 62.1887 386.085 64.3193 387.04 66.1788C387.994 68.0382 389.227 69.6265 390.739 70.9436C392.25 72.2607 393.96 73.268 395.869 73.9652C397.778 74.6626 399.767 75.0112 401.835 75.0112C405.017 75.0112 407.999 74.2752 410.783 72.8031C413.647 71.2535 415.596 69.2391 416.63 66.7598L430.351 70.4788C428.044 75.1274 424.345 78.9626 419.255 81.9842C414.243 84.9283 408.238 86.4004 401.238 86.4004ZM417.465 49.6761C417.067 45.1049 415.317 41.4635 412.215 38.7517C409.193 35.9626 405.494 34.568 401.119 34.568C398.971 34.568 396.943 34.9553 395.034 35.7301C393.204 36.4274 391.574 37.4346 390.142 38.7517C388.71 40.0689 387.517 41.6571 386.563 43.5166C385.688 45.3761 385.171 47.4292 385.012 49.6761H417.465Z" fill="white"/>
<path d="M503.833 85.2382V66.5274H468.158V52.5815L508.844 2.72471H519.821V52.4653H530.32V66.5274H519.821V85.2382H503.833ZM484.265 52.4653H505.622V26.2004L484.265 52.4653Z" fill="white"/>
</g>
</svg>
