<svg width="401" height="67" viewBox="0 0 401 67" fill="none" xmlns="http://www.w3.org/2000/svg">
<g opacity="0.05">
<path d="M73.9053 65.4089H61.8198V39.1873C61.8198 35.4413 61.1584 32.7062 59.8356 30.9819C58.5729 29.2575 56.7992 28.3954 54.5144 28.3954C52.1093 28.3954 49.8545 29.317 47.7501 31.1602C45.6456 32.944 44.1425 35.2927 43.2406 38.2062V65.4089H31.155V39.1873C31.155 35.4413 30.4936 32.7062 29.1708 30.9819C27.9082 29.2575 26.1344 28.3954 23.8496 28.3954C21.5046 28.3954 19.2499 29.2873 17.0853 31.0711C14.9808 32.8548 13.4777 35.2035 12.5758 38.117V65.4089H0.490234V18.6738H11.4033V27.3251C13.147 24.2927 15.522 21.9738 18.5283 20.3684C21.5948 18.7035 25.0822 17.871 28.9904 17.871C32.9588 17.871 36.0253 18.8224 38.1899 20.7251C40.3545 22.6278 41.7374 24.9765 42.3386 27.7711C44.2627 24.5602 46.6979 22.1224 49.6441 20.4575C52.5903 18.7332 55.9574 17.871 59.7454 17.871C62.6315 17.871 65.0065 18.4062 66.8705 19.4765C68.7344 20.5467 70.1775 21.944 71.1996 23.6683C72.2218 25.3927 72.9132 27.3548 73.274 29.5548C73.6949 31.7548 73.9053 33.9846 73.9053 36.244V65.4089Z" fill="white"/>
<path d="M106.253 66.3008C102.405 66.3008 98.948 65.6467 95.8815 64.3386C92.8151 63.0305 90.1995 61.2765 88.035 59.0765C85.9305 56.817 84.3071 54.2305 83.1647 51.317C82.0222 48.4035 81.451 45.3413 81.451 42.1305C81.451 38.8602 82.0222 35.7684 83.1647 32.8548C84.3071 29.9413 85.9305 27.3846 88.035 25.1846C90.1995 22.9251 92.8151 21.1413 95.8815 19.8332C98.948 18.5251 102.405 17.871 106.253 17.871C110.102 17.871 113.529 18.5251 116.535 19.8332C119.602 21.1413 122.187 22.9251 124.292 25.1846C126.456 27.3846 128.11 29.9413 129.252 32.8548C130.394 35.7684 130.966 38.8602 130.966 42.1305C130.966 45.3413 130.394 48.4035 129.252 51.317C128.11 54.2305 126.486 56.817 124.382 59.0765C122.277 61.2765 119.692 63.0305 116.625 64.3386C113.559 65.6467 110.102 66.3008 106.253 66.3008ZM93.8973 42.1305C93.8973 44.2116 94.198 46.1143 94.7992 47.8386C95.4606 49.5035 96.3325 50.9602 97.4148 52.2089C98.5572 53.4575 99.88 54.4386 101.383 55.1521C102.886 55.8062 104.51 56.1332 106.253 56.1332C107.997 56.1332 109.621 55.8062 111.124 55.1521C112.627 54.4386 113.92 53.4575 115.002 52.2089C116.144 50.9602 117.016 49.4738 117.617 47.7494C118.279 46.0251 118.61 44.1224 118.61 42.0413C118.61 40.0197 118.279 38.1467 117.617 36.4224C117.016 34.6981 116.144 33.2116 115.002 31.9629C113.92 30.7143 112.627 29.7629 111.124 29.1089C109.621 28.3954 107.997 28.0386 106.253 28.0386C104.51 28.0386 102.886 28.3954 101.383 29.1089C99.88 29.8224 98.5572 30.8035 97.4148 32.0521C96.3325 33.3008 95.4606 34.7873 94.7992 36.5116C94.198 38.2359 93.8973 40.1089 93.8973 42.1305Z" fill="white"/>
<path d="M158.694 66.3008C155.447 66.3008 152.441 65.6765 149.675 64.4278C146.909 63.1792 144.534 61.4548 142.55 59.2548C140.566 57.0548 139.003 54.4981 137.86 51.5846C136.778 48.6116 136.237 45.4305 136.237 42.0413C136.237 38.6521 136.748 35.5008 137.77 32.5873C138.852 29.6738 140.326 27.117 142.189 24.917C144.053 22.717 146.278 20.9927 148.864 19.744C151.449 18.4954 154.275 17.871 157.341 17.871C160.829 17.871 163.955 18.7035 166.721 20.3684C169.547 22.0332 171.742 24.2035 173.305 26.8792V0.300781H185.391V51.6738C185.391 52.9224 185.601 53.8143 186.022 54.3494C186.443 54.8846 187.164 55.1819 188.187 55.2413V65.4089C186.082 65.8251 184.369 66.0332 183.046 66.0332C180.881 66.0332 179.107 65.4981 177.725 64.4278C176.342 63.3575 175.56 61.9602 175.38 60.2359L175.109 57.2927C173.365 60.2656 170.99 62.5251 167.984 64.071C165.038 65.5575 161.941 66.3008 158.694 66.3008ZM161.851 56.1332C162.993 56.1332 164.166 55.9548 165.368 55.5981C166.571 55.1819 167.683 54.617 168.705 53.9035C169.728 53.19 170.63 52.3575 171.411 51.4062C172.253 50.4548 172.884 49.4143 173.305 48.2846V37.1359C172.824 35.8278 172.133 34.6386 171.231 33.5683C170.389 32.4386 169.397 31.4873 168.255 30.7143C167.172 29.8819 166 29.2278 164.737 28.7521C163.535 28.2765 162.332 28.0386 161.129 28.0386C159.326 28.0386 157.642 28.4251 156.079 29.1981C154.576 29.9711 153.283 31.0413 152.201 32.4089C151.118 33.717 150.277 35.2332 149.675 36.9575C149.074 38.6819 148.773 40.4656 148.773 42.3089C148.773 44.2711 149.104 46.0846 149.765 47.7494C150.427 49.4143 151.329 50.8711 152.471 52.1197C153.614 53.3684 154.966 54.3494 156.53 55.0629C158.153 55.7765 159.927 56.1332 161.851 56.1332Z" fill="white"/>
<path d="M211.684 66.3008C206.814 66.3008 203.116 64.7548 200.591 61.6629C198.065 58.5711 196.803 53.9927 196.803 47.9278V18.6738H208.888V45.3413C208.888 52.5359 211.504 56.1332 216.735 56.1332C219.08 56.1332 221.334 55.4494 223.499 54.0819C225.724 52.6548 227.528 50.5143 228.91 47.6602V18.6738H240.996V51.6738C240.996 52.9224 241.206 53.8143 241.627 54.3494C242.108 54.8846 242.86 55.1819 243.882 55.2413V65.4089C242.68 65.6467 241.657 65.7954 240.816 65.8548C240.034 65.9143 239.312 65.944 238.651 65.944C236.486 65.944 234.713 65.4684 233.33 64.517C232.007 63.5062 231.225 62.1386 230.985 60.4143L230.714 56.6684C228.61 59.8792 225.904 62.2873 222.597 63.8927C219.29 65.4981 215.652 66.3008 211.684 66.3008Z" fill="white"/>
<path d="M252.916 0.300781H265.001V50.4251C265.001 52.1494 265.422 53.4873 266.264 54.4386C267.106 55.39 268.308 55.8656 269.872 55.8656C270.593 55.8656 271.375 55.7467 272.217 55.5089C273.119 55.271 273.96 54.9738 274.742 54.617L276.365 63.7143C274.742 64.4873 272.848 65.0819 270.684 65.4981C268.519 65.9143 266.565 66.1224 264.821 66.1224C261.033 66.1224 258.087 65.1413 255.982 63.1792C253.938 61.1575 252.916 58.3035 252.916 54.617V0.300781Z" fill="white"/>
<path d="M303.547 66.3008C299.759 66.3008 296.332 65.6765 293.266 64.4278C290.199 63.1197 287.584 61.3656 285.419 59.1656C283.254 56.9656 281.571 54.4089 280.368 51.4954C279.226 48.5819 278.655 45.5197 278.655 42.3089C278.655 38.9792 279.226 35.8575 280.368 32.944C281.511 29.9711 283.164 27.3846 285.329 25.1846C287.493 22.9251 290.109 21.1413 293.175 19.8332C296.302 18.5251 299.789 17.871 303.638 17.871C307.486 17.871 310.913 18.5251 313.919 19.8332C316.986 21.1413 319.571 22.8954 321.676 25.0954C323.84 27.2954 325.464 29.8521 326.546 32.7656C327.688 35.6792 328.26 38.7116 328.26 41.8629C328.26 42.6359 328.23 43.3792 328.169 44.0927C328.169 44.8062 328.109 45.4008 327.989 45.8765H291.462C291.642 47.7197 292.093 49.3548 292.815 50.7819C293.536 52.2089 294.468 53.4278 295.611 54.4386C296.753 55.4494 298.046 56.2224 299.489 56.7575C300.932 57.2927 302.435 57.5602 303.998 57.5602C306.403 57.5602 308.658 56.9954 310.763 55.8656C312.927 54.6765 314.4 53.1305 315.182 51.2278L325.554 54.0819C323.81 57.6494 321.014 60.5927 317.166 62.9116C313.378 65.1711 308.839 66.3008 303.547 66.3008ZM315.813 38.117C315.513 34.6089 314.19 31.8143 311.845 29.7332C309.56 27.5927 306.764 26.5224 303.457 26.5224C301.834 26.5224 300.301 26.8197 298.857 27.4143C297.475 27.9494 296.242 28.7224 295.16 29.7332C294.077 30.744 293.175 31.9629 292.454 33.39C291.793 34.817 291.402 36.3927 291.281 38.117H315.813Z" fill="white"/>
<path d="M376.409 66.2116C371.178 66.2116 366.729 65.1413 363.061 63.0008C359.454 60.8602 356.928 57.7981 355.485 53.8143L361.889 45.9656C362.069 46.7981 362.49 47.7494 363.151 48.8197C363.813 49.8305 364.715 50.8413 365.857 51.8521C367.06 52.8035 368.503 53.6062 370.186 54.2602C371.93 54.9143 373.944 55.2413 376.229 55.2413C377.792 55.2413 379.265 55.0629 380.648 54.7062C382.091 54.29 383.354 53.7251 384.436 53.0116C385.519 52.2981 386.36 51.4359 386.962 50.4251C387.623 49.3548 387.954 48.1359 387.954 46.7683C387.954 43.7359 386.33 41.4765 383.083 39.99C379.837 38.5035 375.297 37.7602 369.465 37.7602H366.488V27.7711H369.465C371.87 27.7711 374.094 27.6224 376.139 27.3251C378.183 26.9683 379.957 26.4629 381.46 25.8089C382.963 25.0954 384.136 24.2035 384.977 23.1332C385.819 22.0629 386.24 20.7846 386.24 19.2981C386.24 17.99 385.939 16.8602 385.338 15.9089C384.797 14.9575 384.076 14.1846 383.174 13.59C382.272 12.9954 381.25 12.5494 380.107 12.2521C379.025 11.9548 377.943 11.8062 376.86 11.8062C375.056 11.8062 373.403 12.044 371.9 12.5197C370.397 12.9359 369.074 13.5008 367.931 14.2143C366.789 14.8683 365.797 15.6413 364.955 16.5332C364.173 17.3656 363.542 18.1981 363.061 19.0305L355.305 10.3792C356.327 8.95213 357.62 7.67375 359.183 6.54402C360.746 5.41429 362.49 4.46294 364.414 3.68997C366.338 2.917 368.352 2.3224 370.457 1.90619C372.561 1.48997 374.666 1.28186 376.77 1.28186C380.017 1.28186 382.993 1.72781 385.699 2.6197C388.465 3.51159 390.84 4.76024 392.824 6.36564C394.808 7.91159 396.341 9.75483 397.424 11.8954C398.566 13.9765 399.137 16.2359 399.137 18.6738C399.137 22.2413 398.055 25.1846 395.891 27.5035C393.726 29.7629 390.78 31.3089 387.052 32.1413C389.096 32.4981 390.93 33.1819 392.553 34.1927C394.237 35.144 395.65 36.3629 396.792 37.8494C397.995 39.2765 398.897 40.9116 399.498 42.7548C400.16 44.5386 400.49 46.4116 400.49 48.3738C400.49 51.4062 399.799 54.0521 398.416 56.3116C397.033 58.5116 395.199 60.3548 392.914 61.8413C390.69 63.2684 388.134 64.3683 385.248 65.1413C382.362 65.8548 379.416 66.2116 376.409 66.2116Z" fill="white"/>
</g>
</svg>
