<svg width="401" height="69" viewBox="0 0 401 69" fill="none" xmlns="http://www.w3.org/2000/svg">
<g opacity="0.05">
<path d="M74.2379 67.3819H62.0976V40.3656C62.0976 36.5062 61.4332 33.6882 60.1045 31.9116C58.8361 30.135 57.0543 29.2467 54.7591 29.2467C52.3431 29.2467 50.0781 30.1963 47.9642 32.0954C45.8502 33.9332 44.3402 36.353 43.4342 39.3548V67.3819H31.2939V40.3656C31.2939 36.5062 30.6295 33.6882 29.3008 31.9116C28.0324 30.135 26.2506 29.2467 23.9554 29.2467C21.5998 29.2467 19.3348 30.1656 17.1605 32.0035C15.0465 33.8413 13.5365 36.2611 12.6305 39.2629V67.3819H0.490234V19.2305H11.4527V28.144C13.2043 25.0197 15.5901 22.6305 18.6101 20.9765C21.6904 19.2611 25.1936 18.4035 29.1196 18.4035C33.1059 18.4035 36.1863 19.3837 38.3607 21.344C40.535 23.3044 41.9242 25.7242 42.5282 28.6035C44.461 25.2954 46.9072 22.7837 49.8667 21.0683C52.8263 19.2918 56.2087 18.4035 60.0139 18.4035C62.913 18.4035 65.2988 18.9548 67.1712 20.0575C69.0436 21.1602 70.4932 22.5999 71.5199 24.3765C72.5467 26.153 73.2413 28.1747 73.6037 30.4413C74.0265 32.708 74.2379 35.0053 74.2379 37.3332V67.3819Z" fill="white"/>
<path d="M106.733 68.3008C102.867 68.3008 99.394 67.6269 96.3137 66.2792C93.2333 64.9314 90.6059 63.1242 88.4315 60.8575C86.3176 58.5296 84.6868 55.8647 83.5392 52.8629C82.3916 49.8611 81.8178 46.7062 81.8178 43.3981C81.8178 40.0287 82.3916 36.8431 83.5392 33.8413C84.6868 30.8395 86.3176 28.2053 88.4315 25.9386C90.6059 23.6107 93.2333 21.7729 96.3137 20.4251C99.394 19.0774 102.867 18.4035 106.733 18.4035C110.598 18.4035 114.041 19.0774 117.061 20.4251C120.141 21.7729 122.738 23.6107 124.852 25.9386C127.027 28.2053 128.688 30.8395 129.835 33.8413C130.983 36.8431 131.557 40.0287 131.557 43.3981C131.557 46.7062 130.983 49.8611 129.835 52.8629C128.688 55.8647 127.057 58.5296 124.943 60.8575C122.829 63.1242 120.232 64.9314 117.151 66.2792C114.071 67.6269 110.598 68.3008 106.733 68.3008ZM94.3205 43.3981C94.3205 45.5422 94.6225 47.5026 95.2265 49.2792C95.8909 50.9945 96.7667 52.4954 97.8538 53.7819C99.0014 55.0683 100.33 56.0792 101.84 56.8143C103.35 57.4882 104.981 57.8251 106.733 57.8251C108.484 57.8251 110.115 57.4882 111.625 56.8143C113.135 56.0792 114.433 55.0683 115.521 53.7819C116.668 52.4954 117.544 50.9638 118.148 49.1873C118.812 47.4107 119.145 45.4503 119.145 43.3062C119.145 41.2233 118.812 39.2936 118.148 37.517C117.544 35.7404 116.668 34.2089 115.521 32.9224C114.433 31.6359 113.135 30.6557 111.625 29.9819C110.115 29.2467 108.484 28.8792 106.733 28.8792C104.981 28.8792 103.35 29.2467 101.84 29.9819C100.33 30.717 99.0014 31.7278 97.8538 33.0143C96.7667 34.3008 95.8909 35.8323 95.2265 37.6089C94.6225 39.3855 94.3205 41.3152 94.3205 43.3981Z" fill="white"/>
<path d="M159.411 68.3008C156.149 68.3008 153.129 67.6575 150.351 66.371C147.573 65.0846 145.187 63.308 143.194 61.0413C141.201 58.7747 139.63 56.1404 138.483 53.1386C137.395 50.0756 136.852 46.7981 136.852 43.3062C136.852 39.8143 137.365 36.5674 138.392 33.5656C139.479 30.5638 140.959 27.9296 142.831 25.6629C144.704 23.3963 146.939 21.6197 149.536 20.3332C152.133 19.0467 154.972 18.4035 158.052 18.4035C161.555 18.4035 164.696 19.2611 167.474 20.9765C170.313 22.6918 172.518 24.9278 174.088 27.6846V0.300781H186.228V53.2305C186.228 54.517 186.44 55.4359 186.863 55.9873C187.285 56.5386 188.01 56.8449 189.037 56.9062V67.3819C186.923 67.8107 185.202 68.0251 183.873 68.0251C181.698 68.0251 179.917 67.4738 178.527 66.371C177.138 65.2683 176.353 63.8287 176.172 62.0521L175.9 59.0197C174.148 62.0828 171.763 64.4107 168.743 66.0035C165.783 67.535 162.673 68.3008 159.411 68.3008ZM162.582 57.8251C163.73 57.8251 164.907 57.6413 166.115 57.2738C167.323 56.8449 168.441 56.2629 169.467 55.5278C170.494 54.7927 171.4 53.935 172.185 52.9548C173.031 51.9747 173.665 50.9026 174.088 49.7386V38.2521C173.605 36.9044 172.91 35.6792 172.004 34.5765C171.159 33.4125 170.162 32.4323 169.014 31.6359C167.927 30.7783 166.75 30.1044 165.481 29.6143C164.273 29.1242 163.065 28.8792 161.857 28.8792C160.045 28.8792 158.354 29.2774 156.784 30.0738C155.274 30.8702 153.975 31.9729 152.888 33.3819C151.801 34.7296 150.955 36.2918 150.351 38.0684C149.747 39.8449 149.445 41.6828 149.445 43.5819C149.445 45.6035 149.777 47.472 150.442 49.1873C151.106 50.9026 152.012 52.4035 153.16 53.69C154.307 54.9765 155.666 55.9873 157.237 56.7224C158.867 57.4575 160.649 57.8251 162.582 57.8251Z" fill="white"/>
<path d="M212.641 68.3008C207.748 68.3008 204.034 66.708 201.497 63.5224C198.96 60.3368 197.692 55.6197 197.692 49.3711V19.2305H209.832V46.7062C209.832 54.1188 212.46 57.8251 217.714 57.8251C220.07 57.8251 222.335 57.1206 224.509 55.7116C226.744 54.2413 228.556 52.0359 229.945 49.0954V19.2305H242.085V53.2305C242.085 54.517 242.297 55.4359 242.72 55.9873C243.203 56.5386 243.958 56.8449 244.985 56.9062V67.3819C243.777 67.6269 242.75 67.7801 241.904 67.8413C241.119 67.9026 240.394 67.9332 239.73 67.9332C237.556 67.9332 235.774 67.4431 234.385 66.4629C233.056 65.4215 232.271 64.0125 232.029 62.2359L231.757 58.3765C229.643 61.6846 226.925 64.1656 223.603 65.8197C220.281 67.4738 216.627 68.3008 212.641 68.3008Z" fill="white"/>
<path d="M254.059 0.300781H266.2V51.944C266.2 53.7206 266.623 55.099 267.468 56.0792C268.314 57.0593 269.522 57.5494 271.092 57.5494C271.817 57.5494 272.602 57.4269 273.448 57.1819C274.354 56.9368 275.199 56.6305 275.984 56.2629L277.615 65.6359C275.984 66.4323 274.082 67.0449 271.907 67.4738C269.733 67.9026 267.77 68.117 266.019 68.117C262.213 68.117 259.254 67.1062 257.14 65.0846C255.086 63.0017 254.059 60.0611 254.059 56.2629V0.300781Z" fill="white"/>
<path d="M304.92 68.3008C301.115 68.3008 297.672 67.6575 294.592 66.371C291.512 65.0233 288.884 63.2161 286.71 60.9494C284.535 58.6828 282.844 56.0485 281.636 53.0467C280.489 50.0449 279.915 46.89 279.915 43.5819C279.915 40.1512 280.489 36.935 281.636 33.9332C282.784 30.8701 284.445 28.2053 286.619 25.9386C288.794 23.6107 291.421 21.7729 294.501 20.4251C297.642 19.0774 301.145 18.4035 305.011 18.4035C308.876 18.4035 312.319 19.0774 315.339 20.4251C318.419 21.7729 321.017 23.5801 323.131 25.8467C325.305 28.1134 326.936 30.7476 328.023 33.7494C329.171 36.7512 329.744 39.8756 329.744 43.1224C329.744 43.9188 329.714 44.6846 329.654 45.4197C329.654 46.1548 329.593 46.7674 329.473 47.2575H292.78C292.961 49.1566 293.414 50.8413 294.139 52.3116C294.864 53.7819 295.8 55.0377 296.948 56.0792C298.095 57.1206 299.394 57.917 300.843 58.4683C302.293 59.0197 303.803 59.2954 305.373 59.2954C307.789 59.2954 310.054 58.7134 312.168 57.5494C314.343 56.3242 315.822 54.7314 316.608 52.7711L327.026 55.7116C325.275 59.3873 322.466 62.4197 318.601 64.8089C314.796 67.1368 310.235 68.3008 304.92 68.3008ZM317.242 39.2629C316.94 35.6485 315.611 32.7692 313.255 30.6251C310.96 28.4197 308.152 27.317 304.83 27.317C303.199 27.317 301.659 27.6233 300.209 28.2359C298.82 28.7873 297.582 29.5837 296.495 30.6251C295.407 31.6665 294.501 32.9224 293.777 34.3927C293.112 35.8629 292.72 37.4864 292.599 39.2629H317.242Z" fill="white"/>
<path d="M356.821 67.3819C356.821 64.6251 357.033 62.144 357.456 59.9386C357.878 57.672 358.603 55.5891 359.63 53.69C360.717 51.7909 362.167 50.0143 363.979 48.3602C365.851 46.7062 368.207 45.0828 371.046 43.49C373.522 42.1422 375.696 40.9783 377.569 39.9981C379.501 38.9566 381.102 38.0071 382.37 37.1494C383.639 36.2918 384.605 35.4341 385.27 34.5765C385.934 33.6575 386.266 32.6161 386.266 31.4521C386.266 29.6143 385.541 28.0521 384.092 26.7656C382.642 25.4179 380.558 24.744 377.84 24.744C376.391 24.744 375.062 24.9584 373.854 25.3873C372.646 25.7548 371.499 26.2756 370.411 26.9494C369.385 27.6233 368.418 28.3891 367.512 29.2467C366.667 30.0431 365.881 30.9008 365.157 31.8197L357.365 22.7224C358.15 21.8647 359.268 20.9458 360.717 19.9656C362.167 18.9242 363.858 17.9747 365.791 17.117C367.784 16.1981 369.958 15.4629 372.314 14.9116C374.73 14.299 377.297 13.9927 380.015 13.9927C383.095 13.9927 385.843 14.3909 388.259 15.1873C390.675 15.9224 392.699 16.9945 394.33 18.4035C396.021 19.7512 397.289 21.4053 398.135 23.3656C399.041 25.2647 399.494 27.3476 399.494 29.6143C399.494 31.7584 399.101 33.6575 398.316 35.3116C397.531 36.9656 396.534 38.4359 395.326 39.7224C394.118 41.0089 392.789 42.1422 391.34 43.1224C389.951 44.0413 388.592 44.8683 387.263 45.6035C386.176 46.2161 384.937 46.9206 383.548 47.717C382.159 48.5134 380.77 49.4017 379.381 50.3819C378.052 51.3008 376.814 52.281 375.666 53.3224C374.519 54.3026 373.643 55.2828 373.039 56.2629H400.49V67.3819H356.821Z" fill="white"/>
</g>
</svg>
