<svg width="20" height="20" viewBox="0 0 20 20" fill="none" xmlns="http://www.w3.org/2000/svg">
<path d="M10 0C4.478 0 0 4.478 0 10C0 15.522 4.478 20 10 20C15.522 20 20 15.522 20 10C20 4.478 15.522 0 10 0ZM10.2119 15.8223C10.2118 15.8223 10.2121 15.8223 10.2119 15.8223H10.2095C9.20776 15.8218 8.22342 15.5707 7.34924 15.094L4.17648 15.9261L5.02563 12.8255C4.5018 11.9182 4.22623 10.8888 4.22668 9.83429C4.22806 6.53534 6.91299 3.85147 10.2119 3.85147C11.8129 3.85208 13.3157 4.47525 14.4456 5.60608C15.5757 6.73706 16.1977 8.24036 16.1971 9.83902C16.1957 13.1381 13.5104 15.8223 10.2119 15.8223Z" fill="#FF003D"/>
<path d="M10.2139 4.86182C7.46994 4.86182 5.23834 7.0925 5.23712 9.8345C5.23682 10.7741 5.49988 11.6892 5.99777 12.481L6.11603 12.6691L5.6134 14.5043L7.49619 14.0105L7.67792 14.1183C8.44162 14.5714 9.31717 14.8112 10.2098 14.8115H10.2118C12.9536 14.8115 15.1852 12.5806 15.1865 9.83847C15.1869 8.50958 14.67 7.26019 13.7308 6.32025C12.7916 5.38031 11.5425 4.86227 10.2139 4.86182ZM13.14 11.9726C13.0153 12.3217 12.4179 12.6404 12.1306 12.6835C11.8729 12.7219 11.5469 12.7379 11.1887 12.6243C10.9714 12.5553 10.6929 12.4633 10.336 12.3093C8.83591 11.6617 7.85614 10.1517 7.78137 10.0519C7.70661 9.95215 7.17072 9.24124 7.17072 8.50531C7.17072 7.76953 7.55707 7.40775 7.69409 7.25821C7.83127 7.10852 7.99332 7.07114 8.09296 7.07114C8.1926 7.07114 8.29239 7.07205 8.37952 7.07632C8.47138 7.0809 8.59467 7.04138 8.71597 7.33298C8.84064 7.63235 9.13971 8.36813 9.1771 8.4429C9.21448 8.51782 9.23935 8.6051 9.18961 8.7049C9.13971 8.80469 8.974 9.01999 8.81577 9.21622C8.74939 9.29846 8.66287 9.3717 8.75015 9.52139C8.83728 9.67093 9.13758 10.1606 9.58206 10.557C10.1534 11.0663 10.6352 11.2241 10.7848 11.299C10.9341 11.3738 11.0214 11.3613 11.1087 11.2617C11.1958 11.1619 11.4825 10.8251 11.5822 10.6754C11.6818 10.5257 11.7816 10.5508 11.9186 10.6006C12.0558 10.6504 12.791 11.0122 12.9405 11.0869C13.0901 11.1619 13.1897 11.1992 13.2271 11.2617C13.2646 11.3241 13.2646 11.6233 13.14 11.9726Z" fill="#FF003D"/>
</svg>
