<svg width="80" height="80" viewBox="0 0 80 80" fill="none" xmlns="http://www.w3.org/2000/svg">
<g clip-path="url(#clip0)">
<path d="M78.4366 58.4384H73.1243V54.7153C73.1243 52.0982 72.0043 49.7054 70.1832 48.0361V30.8856C70.1832 23.1908 63.7926 16.9307 55.9373 16.9307C48.082 16.9307 41.6915 23.1908 41.6915 30.8856V48.0358C39.8703 49.705 38.7504 52.0979 38.7504 54.715V58.4382H35.5475C34.6845 58.4382 33.985 59.1379 33.985 60.0007C33.985 60.8635 34.6845 61.5632 35.5475 61.5632H40.3129H42.8129V71.5627C42.8129 72.4256 43.5125 73.1252 44.3754 73.1252H49.844C50.707 73.1252 51.4065 72.4256 51.4065 71.5627C51.4065 70.6999 50.707 70.0002 49.844 70.0002H45.9379V61.5629H65.9374V70.0002H61.7188C60.8559 70.0002 60.1563 70.6999 60.1563 71.5627C60.1563 72.4256 60.8559 73.1252 61.7188 73.1252H67.4999C68.3629 73.1252 69.0624 72.4256 69.0624 71.5627V61.5631H71.5624H76.8747V76.8752H38.1253V71.8331C38.1253 67.0323 34.699 62.9146 29.9781 62.0418L25.8751 61.2834C25.6805 61.2475 25.4984 61.1809 25.3309 61.0921C25.2359 61.0109 25.1312 60.9425 25.0201 60.8862C24.5961 60.5396 24.3291 60.0168 24.3219 59.4393C27.5239 57.607 29.688 54.1592 29.688 50.2131V44.1823C29.688 38.3239 24.9217 33.5577 19.0633 33.5577C13.2049 33.5577 8.43862 38.3239 8.43862 44.1823V50.2131C8.43862 54.1582 10.6017 57.6056 13.8025 59.4381C13.7956 60.0181 13.5267 60.5431 13.0997 60.8898C12.9925 60.9448 12.8913 61.0109 12.7991 61.0892C12.63 61.1796 12.446 61.2471 12.2491 61.2835L8.14799 62.042C3.42738 62.9148 0.000976562 67.0324 0.000976562 71.8332V78.438C0.000976562 79.3009 0.700507 80.0005 1.56347 80.0005H36.5625H78.4363C79.2993 80.0005 79.9988 79.3009 79.9988 78.438V60.001C79.9991 59.1379 79.2996 58.4384 78.4366 58.4384ZM44.8162 30.8856H44.8164C44.8164 24.9139 49.8051 20.0557 55.9373 20.0557C62.0695 20.0557 67.0582 24.9141 67.0582 30.8856V46.1673C66.6248 46.0159 66.1763 45.894 65.713 45.8084L62.0498 45.1311C61.391 45.0092 60.8979 44.4755 60.8132 43.8259C63.6879 42.1437 65.6244 39.025 65.6244 35.4605V30.4313C65.6244 29.8772 65.3312 29.3647 64.8534 29.0841L59.4182 25.891C58.7599 25.5041 57.9192 25.6497 57.4291 26.2346C56.0262 27.9086 53.969 28.8688 51.7848 28.8688H47.8123C46.9493 28.8688 46.2498 29.5685 46.2498 30.4313V35.4605C46.2498 39.0241 48.1854 42.1423 51.0592 43.8248C50.9749 44.475 50.4817 45.0092 49.8226 45.1312L46.1609 45.8083C45.6978 45.8939 45.2493 46.0158 44.8161 46.1672V30.8856H44.8162ZM58.976 41.2742C58.7049 41.3198 58.4574 41.4337 58.2529 41.5998C57.5323 41.8726 56.7521 42.0231 55.9371 42.0231C55.1204 42.0231 54.3388 41.8719 53.617 41.5981C53.4135 41.4337 53.1679 41.3205 52.899 41.2747C50.8064 40.1767 49.3748 37.9834 49.3748 35.4608V31.9941H51.7849C54.4459 31.9941 56.9748 30.9934 58.9012 29.2117L62.4995 31.3256V35.4608C62.4996 37.9828 61.0684 40.1759 58.976 41.2742ZM59.0212 46.9023L55.9381 51.1083L52.8526 46.9009C53.3863 46.3615 53.7851 45.6939 54.0051 44.9537C54.6298 45.0808 55.2759 45.1478 55.9373 45.1478C56.5981 45.1478 57.2435 45.0808 57.8676 44.954C58.0874 45.6945 58.4868 46.3626 59.0212 46.9023ZM69.9993 58.4384H67.4993H44.3751H41.8751V54.7151C41.8751 51.8547 43.9167 49.4011 46.7292 48.8811L49.9873 48.2787L54.6781 54.6751C54.9724 55.0764 55.4404 55.3136 55.9382 55.3136C56.436 55.3136 56.904 55.0762 57.1982 54.6748L61.8868 48.2789L65.1448 48.8812C67.9576 49.4014 69.9991 51.8548 69.9991 54.7153V58.4384H69.9993ZM11.5636 50.2128V44.182C11.5636 40.0466 14.928 36.6822 19.0634 36.6822C23.1987 36.6822 26.5633 40.0464 26.5633 44.182V50.2128C26.5633 54.3482 23.1989 57.7126 19.0634 57.7126C14.928 57.7126 11.5636 54.3484 11.5636 50.2128ZM21.6155 61.4234L19.0634 62.151L16.5094 61.4228C16.6259 61.1557 16.7199 60.8773 16.7889 60.5896C17.5219 60.7504 18.2825 60.8375 19.0633 60.8375C19.8433 60.8375 20.6031 60.7506 21.3358 60.5903C21.4048 60.8779 21.4987 61.1564 21.6155 61.4234ZM35.0001 76.8754H3.12613V74.3754H3.12628H13.8119C14.6749 74.3754 15.3744 73.6757 15.3744 72.8129C15.3744 71.9501 14.6749 71.2504 13.8119 71.2504H3.15144C3.40956 68.2104 5.67003 65.6776 8.71627 65.1143L12.8174 64.3559C13.246 64.2767 13.6528 64.1437 14.0328 63.966L18.6347 65.2784C18.7747 65.3184 18.9189 65.3384 19.0631 65.3384C19.2073 65.3384 19.3516 65.3184 19.4916 65.2784L24.0922 63.9665C24.472 64.144 24.8786 64.2768 25.3069 64.356L29.4098 65.1145C32.6489 65.7134 35.0001 68.5388 35.0001 71.8331V76.8754Z" fill="url(#paint0_linear)"/>
<path d="M41.6404 0H22.1098C18.7069 0 15.9381 2.76874 15.9381 6.17171V8.43952H6.17268C2.76972 8.43952 0.000976562 11.2083 0.000976562 14.6112V23.2046C0.00113281 26.6076 2.76988 29.3764 6.17284 29.3764H6.25096V34.6496C6.25096 35.2817 6.63175 35.8513 7.21549 36.0932C7.40877 36.1732 7.61174 36.2121 7.81299 36.2121C8.21971 36.2121 8.6194 36.0534 8.9183 35.7545L15.2964 29.3764H25.7036C29.1065 29.3764 31.8753 26.6078 31.8753 23.2046V19.3745H34.3009L38.8951 23.9689C39.1942 24.2678 39.5937 24.4265 40.0004 24.4265C40.2017 24.4265 40.4047 24.3876 40.5979 24.3076C41.1818 24.0657 41.5625 23.496 41.5625 22.864V19.3745H41.6406C45.0435 19.3745 47.8123 16.6057 47.8123 13.2028V6.17171C47.8121 2.76874 45.0435 0 41.6404 0ZM28.7503 23.2046C28.7503 24.8846 27.3834 26.2514 25.7036 26.2514H14.6492C14.2349 26.2514 13.8374 26.416 13.5444 26.709L9.37596 30.8774V27.814C9.37596 26.9512 8.67643 26.2515 7.81346 26.2515H6.17284C4.49284 26.2515 3.12613 24.8846 3.12613 23.2048V14.6111C3.12613 12.9311 4.493 11.5642 6.17284 11.5642H25.7036C27.3836 11.5642 28.7503 12.9311 28.7503 14.6111V23.2046ZM44.6875 13.2028C44.6875 14.8828 43.3206 16.2495 41.6407 16.2495H40.0001C39.1371 16.2495 38.4376 16.9492 38.4376 17.812V19.0918L36.0529 16.707C35.76 16.414 35.3625 16.2493 34.9481 16.2493H31.8753V14.6111C31.8753 11.2081 29.1065 8.43936 25.7036 8.43936H19.0631V6.17171C19.0631 4.49171 20.43 3.12499 22.1098 3.12499H41.6406C43.3206 3.12499 44.6873 4.49187 44.6873 6.17171V13.2028H44.6875Z" fill="url(#paint1_linear)"/>
<path d="M53.5187 33.799C53.2281 33.5085 52.825 33.3412 52.4141 33.3412C52.0031 33.3412 51.6 33.5084 51.3094 33.799C51.0187 34.0896 50.8516 34.4927 50.8516 34.9037C50.8516 35.3162 51.0187 35.7177 51.3094 36.0084C51.6 36.3004 52.0031 36.4662 52.4141 36.4662C52.825 36.4662 53.2281 36.3004 53.5187 36.0084C53.8094 35.7177 53.9766 35.3145 53.9766 34.9037C53.9766 34.4927 53.8094 34.0896 53.5187 33.799Z" fill="url(#paint2_linear)"/>
<path d="M60.5656 33.799C60.275 33.5084 59.8719 33.3412 59.4609 33.3412C59.05 33.3412 58.6469 33.5084 58.3562 33.799C58.0656 34.0896 57.8984 34.4927 57.8984 34.9037C57.8984 35.3146 58.0656 35.7177 58.3562 36.0084C58.6469 36.3004 59.05 36.4662 59.4609 36.4662C59.8719 36.4662 60.275 36.3004 60.5656 36.0084C60.8562 35.7177 61.0234 35.3146 61.0234 34.9037C61.0234 34.4927 60.8562 34.0896 60.5656 33.799Z" fill="url(#paint3_linear)"/>
<path d="M58.3366 37.3466C57.7266 36.7364 56.7372 36.7365 56.1269 37.3465C56.0136 37.4599 55.8292 37.4597 55.7161 37.3465C55.106 36.7361 54.1164 36.7363 53.5064 37.3466C52.8963 37.9568 52.8963 38.946 53.5064 39.5563C54.1722 40.2221 55.0469 40.5551 55.9214 40.5551C56.7961 40.5551 57.6707 40.2221 58.3366 39.5563C58.9467 38.946 58.9469 37.9568 58.3366 37.3466Z" fill="url(#paint4_linear)"/>
<path d="M57.0437 70.4581C56.7516 70.1674 56.35 70.0002 55.9391 70.0002C55.5266 70.0002 55.125 70.1673 54.8328 70.4581C54.5422 70.7487 54.375 71.1518 54.375 71.5627C54.375 71.9737 54.5422 72.3768 54.8328 72.6673C55.125 72.9579 55.5266 73.1252 55.9391 73.1252C56.35 73.1252 56.7517 72.9579 57.0437 72.6673C57.3344 72.3768 57.5016 71.9737 57.5016 71.5627C57.5014 71.1518 57.3342 70.7487 57.0437 70.4581Z" fill="url(#paint5_linear)"/>
<path d="M20.0006 14.5323H7.81347C6.95051 14.5323 6.25098 15.232 6.25098 16.0948C6.25098 16.9577 6.95051 17.6573 7.81347 17.6573H20.0006C20.8636 17.6573 21.5631 16.9577 21.5631 16.0948C21.5631 15.232 20.8636 14.5323 20.0006 14.5323Z" fill="url(#paint6_linear)"/>
<path d="M25.0119 20.6158C24.7213 20.3251 24.3182 20.158 23.9072 20.158C23.4963 20.158 23.0932 20.325 22.8025 20.6158C22.5119 20.9064 22.3447 21.3095 22.3447 21.7205C22.3447 22.1314 22.5119 22.5345 22.8025 22.825C23.0932 23.1156 23.4961 23.283 23.9072 23.283C24.3182 23.283 24.7213 23.1158 25.0119 22.825C25.3025 22.5345 25.4697 22.1314 25.4697 21.7205C25.4697 21.3095 25.3025 20.9064 25.0119 20.6158Z" fill="url(#paint7_linear)"/>
<path d="M18.1256 20.158H7.81347C6.95051 20.158 6.25098 20.8576 6.25098 21.7205C6.25098 22.5833 6.95051 23.283 7.81347 23.283H18.1256C18.9886 23.283 19.6881 22.5833 19.6881 21.7205C19.6881 20.8576 18.9886 20.158 18.1256 20.158Z" fill="url(#paint8_linear)"/>
<path d="M20.3654 71.7071C20.0748 71.4163 19.6732 71.2493 19.2607 71.2493C18.8498 71.2493 18.4467 71.4163 18.1561 71.7071C17.8654 71.9977 17.6982 72.4008 17.6982 72.8118C17.6982 73.2227 17.8654 73.6258 18.1561 73.9163C18.4467 74.2069 18.8498 74.3743 19.2607 74.3743C19.6732 74.3743 20.0748 74.2071 20.3654 73.9163C20.6576 73.6258 20.8248 73.2227 20.8248 72.8118C20.8248 72.4008 20.6576 71.9977 20.3654 71.7071Z" fill="url(#paint9_linear)"/>
</g>
<defs>
<linearGradient id="paint0_linear" x1="-16.5219" y1="68.9409" x2="81.6406" y2="65.6317" gradientUnits="userSpaceOnUse">
<stop stop-color="#FF0000"/>
<stop offset="1" stop-color="#822EED"/>
</linearGradient>
<linearGradient id="paint1_linear" x1="-9.87407" y1="29.8621" x2="48.788" y2="27.8036" gradientUnits="userSpaceOnUse">
<stop stop-color="#FF0000"/>
<stop offset="1" stop-color="#822EED"/>
</linearGradient>
<linearGradient id="paint2_linear" x1="50.2061" y1="35.9182" x2="54.0423" y2="35.8162" gradientUnits="userSpaceOnUse">
<stop stop-color="#FF0000"/>
<stop offset="1" stop-color="#822EED"/>
</linearGradient>
<linearGradient id="paint3_linear" x1="57.253" y1="35.9182" x2="61.0892" y2="35.8162" gradientUnits="userSpaceOnUse">
<stop stop-color="#FF0000"/>
<stop offset="1" stop-color="#822EED"/>
</linearGradient>
<linearGradient id="paint4_linear" x1="51.8622" y1="39.9122" x2="58.908" y2="39.6187" gradientUnits="userSpaceOnUse">
<stop stop-color="#FF0000"/>
<stop offset="1" stop-color="#822EED"/>
</linearGradient>
<linearGradient id="paint5_linear" x1="53.7292" y1="72.5773" x2="57.5674" y2="72.4752" gradientUnits="userSpaceOnUse">
<stop stop-color="#FF0000"/>
<stop offset="1" stop-color="#822EED"/>
</linearGradient>
<linearGradient id="paint6_linear" x1="3.08837" y1="17.1094" x2="21.585" y2="14.7005" gradientUnits="userSpaceOnUse">
<stop stop-color="#FF0000"/>
<stop offset="1" stop-color="#822EED"/>
</linearGradient>
<linearGradient id="paint7_linear" x1="21.6993" y1="22.735" x2="25.5355" y2="22.633" gradientUnits="userSpaceOnUse">
<stop stop-color="#FF0000"/>
<stop offset="1" stop-color="#822EED"/>
</linearGradient>
<linearGradient id="paint8_linear" x1="3.47564" y1="22.735" x2="19.7698" y2="20.8728" gradientUnits="userSpaceOnUse">
<stop stop-color="#FF0000"/>
<stop offset="1" stop-color="#822EED"/>
</linearGradient>
<linearGradient id="paint9_linear" x1="17.0525" y1="73.8263" x2="20.8906" y2="73.7242" gradientUnits="userSpaceOnUse">
<stop stop-color="#FF0000"/>
<stop offset="1" stop-color="#822EED"/>
</linearGradient>
<clipPath id="clip0">
<rect width="80" height="80" fill="white"/>
</clipPath>
</defs>
</svg>
