<svg width="80" height="80" viewBox="0 0 80 80" fill="none" xmlns="http://www.w3.org/2000/svg">
<path d="M51.2117 28.4853C52.4326 27.244 53.2641 25.6626 53.601 23.9408C53.9379 22.2191 53.765 20.4345 53.1043 18.8127C52.4435 17.1909 51.3246 15.8046 49.8889 14.8293C48.4532 13.854 46.7652 13.3334 45.0385 13.3333H40.6539V4C40.6539 2.93913 40.2394 1.92172 39.5015 1.17157C38.7637 0.421427 37.7629 0 36.7194 0C35.6759 0 34.6751 0.421427 33.9372 1.17157C33.1994 1.92172 32.7848 2.93913 32.7848 4V19.4478L31.904 18.5523C31.1363 17.7719 30.0951 17.3334 29.0094 17.3334C27.9237 17.3334 26.8825 17.7719 26.1148 18.5523C25.3471 19.3328 24.9158 20.3913 24.9158 21.4951C24.9158 22.5988 25.3471 23.6574 26.1148 24.4378L32.7848 31.219V33.3333H31.4733C31.1255 33.3333 30.7919 33.4738 30.5459 33.7239C30.3 33.9739 30.1618 34.313 30.1618 34.6667V80H32.7848V36H48.523V80H51.1461V34.6667C51.1461 34.313 51.0079 33.9739 50.7619 33.7239C50.516 33.4738 50.1824 33.3333 49.8346 33.3333H48.523V31.219L51.2117 28.4853ZM35.4079 33.3333V30.6667C35.4079 30.4916 35.374 30.3182 35.3081 30.1564C35.2421 29.9946 35.1455 29.8477 35.0238 29.7238L27.9694 22.5523C27.6936 22.2719 27.5387 21.8916 27.5387 21.4951C27.5387 21.0985 27.6936 20.7182 27.9694 20.4378C28.2452 20.1574 28.6193 19.9999 29.0094 19.9999C29.3994 19.9999 29.7735 20.1574 30.0493 20.4378L33.1689 23.6095C33.3524 23.796 33.5861 23.923 33.8405 23.9744C34.0949 24.0259 34.3586 23.9995 34.5983 23.8986C34.8379 23.7976 35.0427 23.6267 35.1869 23.4075C35.331 23.1882 35.4079 22.9304 35.4079 22.6667V4C35.4079 3.64638 35.546 3.30724 35.792 3.05719C36.038 2.80714 36.3716 2.66667 36.7194 2.66667C37.0672 2.66667 37.4008 2.80714 37.6468 3.05719C37.8927 3.30724 38.0309 3.64638 38.0309 4V14.6667C38.0309 15.0203 38.1691 15.3594 38.415 15.6095C38.661 15.8595 38.9946 16 39.3424 16H45.0385C46.2465 16 47.4274 16.3641 48.4319 17.0464C49.4363 17.7287 50.2192 18.6985 50.6814 19.8331C51.1437 20.9677 51.2646 22.2163 51.0289 23.4208C50.7932 24.6253 50.2114 25.7317 49.3572 26.6L46.2841 29.7242C46.0382 29.9741 45.9001 30.3132 45.9 30.6667V33.3333H35.4079Z" fill="url(#paint0_linear)"/>
<path d="M45.9004 38.6666H43.2773V41.3333H45.9004V38.6666Z" fill="url(#paint1_linear)"/>
<path d="M20.9816 31.999H11.801C10.4101 32.0006 9.07665 32.563 8.09316 33.5629C7.10967 34.5627 6.55646 35.9184 6.55489 37.3324V43.503C5.72716 42.8701 4.69424 42.5797 3.66425 42.6902C2.63427 42.8008 1.68377 43.3041 1.00427 44.0987C0.324774 44.8934 -0.0332172 45.9203 0.00242753 46.9727C0.0380723 48.025 0.464704 49.0244 1.19636 49.7697L6.55489 55.2179V57.3324H5.24338C4.89554 57.3324 4.56195 57.4728 4.31599 57.7229C4.07004 57.9729 3.93186 58.3121 3.93186 58.6657V79.999H6.55489V59.999H22.2931V79.999H24.9161V58.6657C24.9161 58.3121 24.778 57.9729 24.532 57.7229C24.286 57.4728 23.9525 57.3324 23.6046 57.3324H22.2931V55.2035C24.8313 52.4371 26.2381 48.7919 26.2277 45.0089V37.3324C26.2261 35.9184 25.6729 34.5627 24.6894 33.5629C23.7059 32.563 22.3725 32.0006 20.9816 31.999ZM23.6046 45.0089C23.609 46.6279 23.2974 48.2317 22.688 49.7274C22.0786 51.2232 21.1833 52.5812 20.0542 53.7229C19.9324 53.8467 19.8358 53.9937 19.7699 54.1554C19.704 54.3172 19.6701 54.4906 19.6701 54.6657V57.3324H9.17793V54.6657C9.17794 54.4906 9.14402 54.3172 9.07811 54.1554C9.01221 53.9937 8.9156 53.8467 8.79382 53.7229L3.05101 47.8847C2.7752 47.6043 2.62025 47.224 2.62025 46.8274C2.62025 46.4309 2.7752 46.0506 3.05101 45.7702C3.32682 45.4898 3.70091 45.3323 4.09096 45.3323C4.48102 45.3323 4.8551 45.4898 5.13091 45.7702L6.939 47.6085C7.12242 47.795 7.35612 47.922 7.61053 47.9734C7.86495 48.0249 8.12866 47.9985 8.36831 47.8976C8.60797 47.7967 8.8128 47.6257 8.95691 47.4065C9.10102 47.1872 9.17794 46.9294 9.17793 46.6657V37.3324C9.17875 36.6254 9.45537 35.9476 9.94711 35.4477C10.4388 34.9477 11.1055 34.6665 11.801 34.6657H20.9816C21.677 34.6665 22.3437 34.9477 22.8354 35.4477C23.3272 35.9476 23.6038 36.6254 23.6046 37.3324V45.0089Z" fill="url(#paint2_linear)"/>
<path d="M19.6709 62.6676H17.0479V65.3343H19.6709V62.6676Z" fill="url(#paint3_linear)"/>
<path d="M79.9991 49.009V41.3325C79.9976 39.9185 79.4444 38.5628 78.4609 37.563C77.4774 36.5631 76.1439 36.0007 74.7531 35.9991H65.5724C64.1816 36.0007 62.8481 36.5631 61.8646 37.563C60.8812 38.5628 60.3279 39.9185 60.3264 41.3325V47.5031C59.4986 46.8703 58.4657 46.5798 57.4357 46.6904C56.4057 46.8009 55.4552 47.3042 54.7758 48.0989C54.0963 48.8935 53.7383 49.9205 53.7739 50.9728C53.8096 52.0251 54.2362 53.0246 54.9678 53.7698L60.3264 59.218V61.3325H59.0149C58.667 61.3325 58.3334 61.473 58.0875 61.723C57.8415 61.9731 57.7033 62.3122 57.7033 62.6658V79.9991H60.3264V63.9991H76.0646V79.9991H78.6876V62.6658C78.6876 62.3122 78.5494 61.9731 78.3035 61.723C78.0575 61.473 77.7239 61.3325 77.3761 61.3325H76.0646V59.2036C78.6028 56.4372 80.0096 52.792 79.9991 49.009ZM62.9494 61.3325V58.6658C62.9494 58.4907 62.9155 58.3173 62.8496 58.1556C62.7837 57.9938 62.6871 57.8468 62.5653 57.723L56.8225 51.8848C56.5467 51.6044 56.3917 51.2241 56.3917 50.8276C56.3917 50.431 56.5467 50.0507 56.8225 49.7703C57.0983 49.4899 57.4724 49.3324 57.8624 49.3324C58.2525 49.3324 58.6266 49.4899 58.9024 49.7703L60.7105 51.6086C60.8939 51.7951 61.1276 51.9221 61.382 51.9736C61.6364 52.025 61.9001 51.9986 62.1398 51.8977C62.3794 51.7968 62.5843 51.6259 62.7284 51.4066C62.8725 51.1873 62.9494 50.9295 62.9494 50.6658V41.3325C62.9502 40.6255 63.2269 39.9477 63.7186 39.4478C64.2103 38.9479 64.877 38.6667 65.5724 38.6658H74.7531C75.4485 38.6667 76.1152 38.9479 76.6069 39.4478C77.0987 39.9477 77.3753 40.6255 77.3761 41.3325V49.009C77.3805 50.628 77.0689 52.2318 76.4595 53.7275C75.85 55.2233 74.9548 56.5813 73.8257 57.723C73.7039 57.8468 73.6073 57.9938 73.5414 58.1556C73.4755 58.3173 73.4415 58.4907 73.4416 58.6658V61.3325H62.9494Z" fill="url(#paint4_linear)"/>
<path d="M73.4424 66.6677H70.8193V69.3344H73.4424V66.6677Z" fill="url(#paint5_linear)"/>
<defs>
<linearGradient id="paint0_linear" x1="18.9564" y1="65.9716" x2="54.3979" y2="65.6319" gradientUnits="userSpaceOnUse">
<stop stop-color="#FF0000"/>
<stop offset="1" stop-color="#822EED"/>
</linearGradient>
<linearGradient id="paint1_linear" x1="42.7356" y1="40.8657" x2="45.9557" y2="40.7815" gradientUnits="userSpaceOnUse">
<stop stop-color="#FF0000"/>
<stop offset="1" stop-color="#822EED"/>
</linearGradient>
<linearGradient id="paint2_linear" x1="-5.41713" y1="71.582" x2="26.7958" y2="71.1142" gradientUnits="userSpaceOnUse">
<stop stop-color="#FF0000"/>
<stop offset="1" stop-color="#822EED"/>
</linearGradient>
<linearGradient id="paint3_linear" x1="16.5061" y1="64.8667" x2="19.7262" y2="64.7825" gradientUnits="userSpaceOnUse">
<stop stop-color="#FF0000"/>
<stop offset="1" stop-color="#822EED"/>
</linearGradient>
<linearGradient id="paint4_linear" x1="48.3544" y1="72.2835" x2="80.566" y2="71.7732" gradientUnits="userSpaceOnUse">
<stop stop-color="#FF0000"/>
<stop offset="1" stop-color="#822EED"/>
</linearGradient>
<linearGradient id="paint5_linear" x1="70.2776" y1="68.8668" x2="73.4977" y2="68.7826" gradientUnits="userSpaceOnUse">
<stop stop-color="#FF0000"/>
<stop offset="1" stop-color="#822EED"/>
</linearGradient>
</defs>
</svg>
