<svg width="80" height="80" viewBox="0 0 80 80" fill="none" xmlns="http://www.w3.org/2000/svg">
<path d="M70.5413 31.5062L70.5285 31.4537C70.3211 30.616 69.4741 30.1053 68.6366 30.3124C67.7991 30.5198 67.288 31.3667 67.4954 32.2045L67.5047 32.2424C67.678 32.9574 68.3172 33.437 69.0218 33.437C69.1436 33.437 69.2675 33.4226 69.3911 33.3926C70.2296 33.1892 70.7447 32.3446 70.5413 31.5062Z" fill="url(#paint0_linear)"/>
<path d="M29.1696 50.9768C25.2852 48.633 22.9662 44.529 22.9662 39.9986C22.9662 38.5983 23.1904 37.2224 23.6324 35.9093C23.9077 35.0916 23.4679 34.2054 22.6502 33.9302C21.8326 33.6552 20.9465 34.0949 20.6712 34.9125C20.1209 36.5475 19.8418 38.2588 19.8418 39.9988C19.8418 45.6336 22.7255 50.7379 27.5555 53.6524C27.8082 53.8047 28.0863 53.8772 28.3612 53.8772C28.8905 53.8772 29.4068 53.6079 29.7002 53.1216C30.146 52.3829 29.9085 51.4227 29.1696 50.9768Z" fill="url(#paint1_linear)"/>
<path d="M46.7002 28.395C43.7335 25.6017 39.8544 24.0632 35.7777 24.0632C33.8685 24.0632 32.0004 24.3979 30.2254 25.0576C29.4166 25.3584 29.0047 26.2576 29.3054 27.0665C29.606 27.8754 30.5052 28.2873 31.3143 27.9865C32.7399 27.4565 34.2414 27.1878 35.7779 27.1878C39.0552 27.1878 42.1735 28.4243 44.5582 30.6698C44.8599 30.954 45.2447 31.0948 45.6288 31.0948C46.0444 31.0948 46.4591 30.93 46.7666 30.6034C47.358 29.9753 47.3282 28.9864 46.7002 28.395Z" fill="url(#paint2_linear)"/>
<path d="M78.4377 40.4701H66.6836V37.2379C66.6836 35.6668 65.4053 34.3885 63.8342 34.3885H61.7369C60.6628 29.3963 58.1892 24.8494 54.5588 21.2188C48.3983 15.0583 39.5962 12.311 31.013 13.8683C30.1641 14.0224 29.6006 14.8355 29.7547 15.6846C29.9087 16.5336 30.722 17.0965 31.5709 16.9429C39.1458 15.5682 46.9136 17.9925 52.3492 23.4285C55.3928 26.4721 57.5156 30.2443 58.5327 34.3886H50.0036C48.4325 34.3886 47.1542 35.6669 47.1542 37.238V40.4702H35.4002C34.5373 40.4702 33.8378 41.1699 33.8378 42.0326V51.6168C33.8378 53.0833 34.4089 54.4182 35.3391 55.4135V63.4313C29.2441 63.3272 23.552 60.9161 19.2069 56.5708C13.6295 50.9935 11.2402 43.043 12.8153 35.303C12.9873 34.4575 12.4414 33.6325 11.5959 33.4605C10.7502 33.2883 9.92547 33.8344 9.75344 34.6799C7.96875 43.4501 10.6766 52.4594 16.9972 58.7802C21.8606 63.6436 28.4845 66.4355 35.3389 66.5535V72.2149C35.3389 72.3615 35.3488 72.5055 35.3661 72.6474C17.5503 72.4258 3.12453 57.8669 3.12453 39.9996C3.12453 34.4125 4.54563 28.9513 7.24484 24.1116L12.5162 29.408C12.8095 29.7027 13.2081 29.8683 13.6236 29.8683H23.4502L33.0834 39.5016C33.3886 39.8068 33.7884 39.9593 34.1881 39.9593C34.588 39.9593 34.988 39.8068 35.2928 39.5016C35.903 38.8915 35.903 37.9022 35.2928 37.2919L25.6594 27.6586V17.8321C25.6594 17.4171 25.4942 17.0191 25.2003 16.726L19.9142 11.4529C24.7477 8.76271 30.1998 7.34646 35.7773 7.34646C48.4517 7.34646 60.0867 14.7797 65.4194 26.2838C65.6837 26.8541 66.2481 27.1894 66.8378 27.1894C67.0578 27.1894 67.2812 27.1427 67.4939 27.0441C68.2767 26.6811 68.6172 25.7524 68.2544 24.9696C65.4233 18.8621 60.9386 13.6866 55.2847 10.0029C49.4805 6.22083 42.7348 4.22192 35.7775 4.22192C29.3678 4.22192 23.1075 5.92958 17.6216 9.16583L13.1252 4.67989C12.6778 4.2338 12.0063 4.10067 11.423 4.34286C10.8395 4.58489 10.4595 5.15427 10.4595 5.78583V14.64H1.57797C0.946563 14.64 0.3775 15.0199 0.135312 15.6027C-0.106875 16.1857 0.0253125 16.8569 0.470625 17.3044L4.96016 21.8152C1.71328 27.3085 0 33.5786 0 39.9994C0 49.556 3.72156 58.5407 10.4791 65.2982C17.2366 72.0558 26.2213 75.7772 35.7778 75.7772L74.9345 75.779C76.8998 75.779 78.4987 74.1802 78.4987 72.2147V55.4141C79.4675 54.3797 80 53.038 80 51.6138V42.0322C80 41.1696 79.3005 40.4701 78.4377 40.4701ZM13.5841 9.5513L22.535 18.48V24.5275L13.5841 15.5565V9.5513ZM11.3736 17.7649L20.3255 26.743H14.273L5.33719 17.7649H11.3736ZM50.2787 37.5132H63.5586V40.4701H50.2787V37.5132ZM75.3739 65.1538H65.1211C64.2583 65.1538 63.5588 65.8535 63.5588 66.7161C63.5588 67.5788 64.2583 68.2785 65.1211 68.2785H75.3739V72.2146C75.3739 72.4571 75.1769 72.6543 74.9345 72.6543H40.8183C40.807 72.6541 40.7962 72.6525 40.785 72.6525H38.8862C38.6517 72.6436 38.4634 72.4515 38.4634 72.2147V57.1013C38.7692 57.1535 39.083 57.1822 39.4033 57.1822H52.2883C52.5653 59.4919 54.5356 61.2885 56.9188 61.2885C59.3055 61.2885 61.2783 59.4863 61.5505 57.1715L74.4305 57.1796C74.4317 57.1796 74.4328 57.1796 74.4341 57.1796C74.7523 57.1796 75.0662 57.1515 75.3737 57.0994V65.1538H75.3739ZM55.3786 56.6235V53.8771H58.4592V56.6235C58.4592 57.4729 57.7681 58.1638 56.9189 58.1638C56.0697 58.1638 55.3786 57.4729 55.3786 56.6235ZM76.8753 51.6138C76.8753 52.2663 76.6212 52.8794 76.1597 53.3405C75.6986 53.8013 75.0859 54.055 74.4341 54.055C74.4336 54.055 74.4331 54.055 74.4325 54.055L61.5837 54.0469V52.6151C61.5837 51.588 60.7483 50.7524 59.7211 50.7524H54.1162C53.0892 50.7524 52.2536 51.5879 52.2536 52.6151V54.0575H39.4033C38.0572 54.0575 36.9622 52.9624 36.9622 51.6165V43.5947H76.8752V51.6138H76.8753Z" fill="url(#paint3_linear)"/>
<path d="M58.5712 65.6109C58.2805 65.3203 57.8774 65.1531 57.4666 65.1531C57.0541 65.1531 56.6527 65.3201 56.3605 65.6109C56.0699 65.9015 55.9043 66.3046 55.9043 66.7154C55.9043 67.1264 56.0699 67.5293 56.3605 67.8198C56.6527 68.1104 57.0543 68.2778 57.4666 68.2778C57.8776 68.2778 58.2791 68.1106 58.5712 67.8198C58.8618 67.5293 59.029 67.1262 59.029 66.7154C59.029 66.3046 58.8618 65.9015 58.5712 65.6109Z" fill="url(#paint4_linear)"/>
<defs>
<linearGradient id="paint0_linear" x1="66.8014" y1="32.881" x2="70.6518" y2="32.7798" gradientUnits="userSpaceOnUse">
<stop stop-color="#FF0000"/>
<stop offset="1" stop-color="#822EED"/>
</linearGradient>
<linearGradient id="paint1_linear" x1="17.7592" y1="50.3651" x2="30.1439" y2="50.1993" gradientUnits="userSpaceOnUse">
<stop stop-color="#FF0000"/>
<stop offset="1" stop-color="#822EED"/>
</linearGradient>
<linearGradient id="paint2_linear" x1="25.4925" y1="29.8618" x2="47.4839" y2="28.3669" gradientUnits="userSpaceOnUse">
<stop stop-color="#FF0000"/>
<stop offset="1" stop-color="#822EED"/>
</linearGradient>
<linearGradient id="paint3_linear" x1="-16.5234" y1="63.2311" x2="81.6667" y2="60.3135" gradientUnits="userSpaceOnUse">
<stop stop-color="#FF0000"/>
<stop offset="1" stop-color="#822EED"/>
</linearGradient>
<linearGradient id="paint4_linear" x1="55.2589" y1="67.7298" x2="59.0948" y2="67.6279" gradientUnits="userSpaceOnUse">
<stop stop-color="#FF0000"/>
<stop offset="1" stop-color="#822EED"/>
</linearGradient>
</defs>
</svg>
