<svg width="80" height="80" viewBox="0 0 80 80" fill="none" xmlns="http://www.w3.org/2000/svg">
<path d="M49.375 11.875C49.375 6.70563 45.1694 2.5 40 2.5C34.8306 2.5 30.625 6.70563 30.625 11.875C30.625 17.0444 34.8306 21.25 40 21.25C45.1694 21.25 49.375 17.0444 49.375 11.875ZM40 18.125C36.5538 18.125 33.75 15.3212 33.75 11.875C33.75 8.42875 36.5538 5.625 40 5.625C43.4462 5.625 46.25 8.42875 46.25 11.875C46.25 15.3212 43.4462 18.125 40 18.125Z" fill="url(#paint0_linear)"/>
<path d="M54.0625 41.5625V35.3125C54.0625 27.5584 47.7541 21.25 40 21.25C32.2459 21.25 25.9375 27.5584 25.9375 35.3125V41.5625C25.9375 42.4255 26.6372 43.125 27.5 43.125H52.5C53.3628 43.125 54.0625 42.4255 54.0625 41.5625ZM50.9375 40H29.0625V35.3125C29.0625 29.2816 33.9691 24.375 40 24.375C46.0309 24.375 50.9375 29.2816 50.9375 35.3125V40Z" fill="url(#paint1_linear)"/>
<path d="M11.2278 63.7678L18.75 67.5283V75.9375C18.75 76.8005 19.4497 77.5 20.3125 77.5H36.875C37.7378 77.5 38.4375 76.8005 38.4375 75.9375V56.0594C38.4375 51.0933 34.7731 46.8089 30.0952 46.3058C29.9709 46.2823 24.0562 45.8416 21.197 42.9842L16.9189 38.7062C15.7383 37.5253 14.1689 36.875 12.5 36.875V24.375C12.5 20.9288 9.69625 18.125 6.25 18.125C2.80375 18.125 0 20.9288 0 24.375V45.6C0 53.2894 4.34344 60.3248 11.2278 63.7678ZM3.125 24.375C3.125 22.6519 4.52688 21.25 6.25 21.25C7.97312 21.25 9.375 22.6519 9.375 24.375V37.7127C7.46938 38.8145 6.25 40.8689 6.25 43.125C6.25 44.7938 6.90031 46.363 8.08109 47.5438L16.0827 55.5469C16.6925 56.157 17.682 56.1573 18.2923 55.547C18.9025 54.9369 18.9027 53.9477 18.2925 53.3373L10.2909 45.3341C9.70031 44.7436 9.375 43.9591 9.375 43.125C9.375 41.8025 10.212 40.6181 11.4581 40.178C11.4586 40.1778 11.4591 40.1775 11.4595 40.1773H11.4597C12.5347 39.7963 13.8138 40.0203 14.7092 40.9158L18.9878 45.1944C21.9019 48.1064 26.1489 48.9255 29.7434 49.4109C29.7492 49.4116 29.7552 49.4123 29.7611 49.413C32.8741 49.7477 35.3125 52.6672 35.3125 56.0594V74.375H21.875V66.5625C21.875 65.9706 21.5405 65.4295 21.0112 65.165L12.6255 60.9728C6.76547 58.042 3.125 52.1516 3.125 45.6V24.375Z" fill="url(#paint2_linear)"/>
<path d="M71.7188 61.5625C72.5817 61.5625 73.2812 60.8629 73.2812 60C73.2812 59.1371 72.5817 58.4375 71.7188 58.4375C70.8558 58.4375 70.1562 59.1371 70.1562 60C70.1562 60.8629 70.8558 61.5625 71.7188 61.5625Z" fill="url(#paint3_linear)"/>
<path d="M73.75 18.125C70.3037 18.125 67.5 20.9288 67.5 24.375V36.875C65.8311 36.875 64.2617 37.5253 63.0811 38.7061L58.8034 42.9838C56.3097 45.4758 52.2647 45.8913 49.9048 46.3059C45.2269 46.8091 41.5625 51.0933 41.5625 56.0594V75.9375C41.5625 76.8005 42.2622 77.5 43.125 77.5H59.6875C60.5503 77.5 61.25 76.8005 61.25 75.9375V67.5283L66.3641 64.9717C67.1358 64.5858 67.4487 63.6473 67.063 62.8753C66.6772 62.1036 65.7389 61.7906 64.9667 62.1764L58.9888 65.1647C58.4595 65.4295 58.125 65.9706 58.125 66.5625V74.375H44.6875V56.0594C44.6875 52.6672 47.1259 49.7477 50.2389 49.4128C50.2448 49.4122 50.2508 49.4116 50.2566 49.4108C53.9067 48.9178 58.1012 48.1033 61.0127 45.1939L65.2908 40.9158C66.1852 40.0214 67.4647 39.7961 68.5403 40.1773H68.5405C68.5409 40.1775 68.5414 40.1778 68.5419 40.178C69.788 40.6181 70.625 41.8025 70.625 43.125C70.625 43.9591 70.2997 44.7436 69.7092 45.3344L61.7077 53.3375C61.0975 53.9478 61.0977 54.937 61.7078 55.5472C62.3178 56.1572 63.3073 56.1573 63.9175 55.547L71.9191 47.5439C73.0997 46.363 73.75 44.7938 73.75 43.125C73.75 40.8689 72.5306 38.8145 70.625 37.7127V24.375C70.625 22.6519 72.0269 21.25 73.75 21.25C75.4731 21.25 76.875 22.6519 76.875 24.375V45.6C76.875 48.4587 76.1536 51.2969 74.7886 53.8075C74.3763 54.5656 74.6567 55.5144 75.415 55.9266C76.173 56.3386 77.1219 56.0583 77.5341 55.3002C79.1473 52.333 80 48.9786 80 45.6V24.375C80 20.9288 77.1963 18.125 73.75 18.125Z" fill="url(#paint4_linear)"/>
<defs>
<linearGradient id="paint0_linear" x1="26.7523" y1="17.9621" x2="49.7697" y2="17.3503" gradientUnits="userSpaceOnUse">
<stop stop-color="#FF0000"/>
<stop offset="1" stop-color="#822EED"/>
</linearGradient>
<linearGradient id="paint1_linear" x1="20.1285" y1="39.2891" x2="54.6386" y2="38.1098" gradientUnits="userSpaceOnUse">
<stop stop-color="#FF0000"/>
<stop offset="1" stop-color="#822EED"/>
</linearGradient>
<linearGradient id="paint2_linear" x1="-7.93896" y1="67.0883" x2="39.266" y2="66.2761" gradientUnits="userSpaceOnUse">
<stop stop-color="#FF0000"/>
<stop offset="1" stop-color="#822EED"/>
</linearGradient>
<linearGradient id="paint3_linear" x1="69.5108" y1="61.0145" x2="73.347" y2="60.9126" gradientUnits="userSpaceOnUse">
<stop stop-color="#FF0000"/>
<stop offset="1" stop-color="#822EED"/>
</linearGradient>
<linearGradient id="paint4_linear" x1="33.6235" y1="67.0883" x2="80.8285" y2="66.2761" gradientUnits="userSpaceOnUse">
<stop stop-color="#FF0000"/>
<stop offset="1" stop-color="#822EED"/>
</linearGradient>
</defs>
</svg>
