<svg width="80" height="80" viewBox="0 0 80 80" fill="none" xmlns="http://www.w3.org/2000/svg">
<g clip-path="url(#clip0)">
<path d="M74.6664 15.9996C71.725 15.9996 69.3331 18.3917 69.3331 21.3329C69.3331 24.2742 71.7252 26.6662 74.6664 26.6662C77.6077 26.6662 79.9997 24.2743 79.9997 21.3329C79.9997 18.3917 77.6077 15.9996 74.6664 15.9996ZM74.6664 23.9996C73.1958 23.9996 71.9997 22.8037 71.9997 21.3329C71.9997 19.8623 73.1956 18.6662 74.6664 18.6662C76.1372 18.6662 77.3331 19.8621 77.3331 21.3329C77.333 22.8037 76.137 23.9996 74.6664 23.9996Z" fill="url(#paint0_linear)"/>
<path d="M5.33328 60C2.39203 60 0 62.392 0 65.3333C0 68.2745 2.39203 70.6666 5.33328 70.6666C8.27469 70.6666 10.6666 68.2745 10.6666 65.3333C10.6666 62.392 8.27469 60 5.33328 60ZM5.33328 68C3.86266 68 2.66656 66.8041 2.66656 65.3333C2.66656 63.8625 3.8625 62.6666 5.33328 62.6666C6.80391 62.6666 8 63.8625 8 65.3333C8 66.8041 6.80406 68 5.33328 68Z" fill="url(#paint1_linear)"/>
<path d="M72.0811 17.6859L60.5785 12.1326C59.9144 11.8112 59.1185 12.0912 58.7985 12.754C58.4785 13.4167 58.7571 14.214 59.4199 14.534L70.9225 20.0873C71.1093 20.1779 71.3066 20.2206 71.5011 20.2206C71.9971 20.2206 72.4732 19.9432 72.7024 19.4659C73.0224 18.8032 72.7438 18.0059 72.0811 17.6859Z" fill="url(#paint2_linear)"/>
<path d="M59.9998 69.3337C57.0584 69.3337 54.6666 71.7258 54.6666 74.667C54.6666 77.6083 57.0584 80.0005 59.9998 80.0005C62.9413 80.0005 65.3331 77.6084 65.3331 74.6672C65.3331 71.7259 62.9413 69.3337 59.9998 69.3337ZM59.9998 77.3337C58.5292 77.3337 57.3331 76.1378 57.3331 74.667C57.3331 73.1962 58.5292 72.0005 59.9998 72.0005C61.4705 72.0005 62.6666 73.1964 62.6666 74.6672C62.6666 76.138 61.4705 77.3337 59.9998 77.3337Z" fill="url(#paint3_linear)"/>
<path d="M57.4146 71.0181L45.9119 65.4648C45.2479 65.1434 44.4519 65.4222 44.1319 66.0863C43.8119 66.7489 44.0905 67.5463 44.7533 67.8663L56.256 73.4195C56.4427 73.5102 56.6401 73.5528 56.8346 73.5528C57.3305 73.5528 57.8066 73.2755 58.036 72.7981C58.3558 72.1353 58.0772 71.3381 57.4146 71.0181Z" fill="url(#paint4_linear)"/>
<path d="M39.9998 35.9996C37.0584 35.9996 34.6666 38.3917 34.6666 41.3329C34.6666 44.2743 37.0586 46.6662 39.9998 46.6662C42.9413 46.6662 45.3331 44.2742 45.3331 41.3329C45.3331 38.3917 42.9413 35.9996 39.9998 35.9996ZM39.9998 43.9996C38.5292 43.9996 37.3331 42.8037 37.3331 41.3329C37.3331 39.8623 38.5291 38.6662 39.9998 38.6662C41.4705 38.6662 42.6666 39.8621 42.6666 41.3329C42.6666 42.8037 41.4705 43.9996 39.9998 43.9996Z" fill="url(#paint5_linear)"/>
<path d="M37.6563 37.8348L28.8203 30.9481C28.2389 30.4987 27.4017 30.5987 26.9483 31.1802C26.4963 31.7616 26.5989 32.5987 27.1803 33.0522L36.0163 39.9389C36.2603 40.1283 36.5483 40.2203 36.835 40.2203C37.2324 40.2203 37.6244 40.0444 37.8883 39.707C38.3403 39.1255 38.2377 38.2881 37.6563 37.8348Z" fill="url(#paint6_linear)"/>
<path d="M63.9997 34.6665C55.9129 34.6665 49.3329 41.2465 49.3329 49.3332C49.3329 57.4199 55.9129 63.9999 63.9997 63.9999C72.0864 63.9999 78.6664 57.4199 78.6664 49.3332C78.6664 41.2465 72.0864 34.6665 63.9997 34.6665ZM63.9997 61.3331C57.3823 61.3331 51.9997 55.9504 51.9997 49.3331C51.9997 42.7157 57.3823 37.3331 63.9997 37.3331C70.617 37.3331 75.9997 42.7157 75.9997 49.3331C75.9997 55.9504 70.617 61.3331 63.9997 61.3331Z" fill="url(#paint7_linear)"/>
<path d="M64.0002 40C61.0588 40 58.6669 42.392 58.6669 45.3333C58.6669 48.2747 61.0589 50.6666 64.0002 50.6666C66.9416 50.6666 69.3335 48.2745 69.3335 45.3333C69.3335 42.392 66.9416 40 64.0002 40ZM64.0002 48C62.5296 48 61.3335 46.8041 61.3335 45.3333C61.3335 43.8627 62.5294 42.6666 64.0002 42.6666C65.4708 42.6666 66.6669 43.8625 66.6669 45.3333C66.6669 46.8041 65.4708 48 64.0002 48Z" fill="url(#paint8_linear)"/>
<path d="M67.8676 53.3341H60.1317C57.8531 53.3341 55.9997 55.1382 55.9997 57.3541V60.8688C55.9997 61.3447 56.2529 61.7847 56.665 62.0235C58.8997 63.3168 61.4356 64.0008 63.9997 64.0008C66.5637 64.0008 69.0997 63.3168 71.3344 62.0235C71.7464 61.7861 71.9997 61.3447 71.9997 60.8702V57.3555C71.9997 55.1382 70.1464 53.3341 67.8676 53.3341ZM69.3329 60.0741C66.0144 61.7274 61.985 61.7274 58.6662 60.0741V57.3555C58.6662 56.6088 59.3236 56.0008 60.1315 56.0008H67.8675C68.6754 56.0008 69.3328 56.6088 69.3328 57.3555V60.0741H69.3329Z" fill="url(#paint9_linear)"/>
<path d="M32.0003 50.6663C23.9136 50.6663 17.3336 57.2463 17.3336 65.333C17.3336 73.4197 23.9136 79.9995 32.0003 79.9995C40.087 79.9995 46.667 73.4195 46.667 65.3328C46.667 57.2461 40.087 50.6663 32.0003 50.6663ZM32.0003 77.3328C25.383 77.3328 20.0003 71.9501 20.0003 65.3328C20.0003 58.7155 25.383 53.3328 32.0003 53.3328C38.6177 53.3328 44.0003 58.7155 44.0003 65.3328C44.0003 71.9501 38.6177 77.3328 32.0003 77.3328Z" fill="url(#paint10_linear)"/>
<path d="M32 55.9996C29.0586 55.9996 26.6667 58.3917 26.6667 61.3329C26.6667 64.2743 29.0588 66.6662 32 66.6662C34.9413 66.6662 37.3333 64.2742 37.3333 61.3329C37.3333 58.3917 34.9414 55.9996 32 55.9996ZM32 63.9996C30.5294 63.9996 29.3333 62.8037 29.3333 61.3329C29.3333 59.8623 30.5292 58.6662 32 58.6662C33.4707 58.6662 34.6667 59.8621 34.6667 61.3329C34.6667 62.8037 33.4707 63.9996 32 63.9996Z" fill="url(#paint11_linear)"/>
<path d="M35.8683 69.3337H28.1324C25.8538 69.3337 24.0003 71.1378 24.0003 73.3537V76.8684C24.0003 77.3444 24.2536 77.7844 24.6656 78.0231C26.9003 79.3164 29.4363 80.0005 32.0003 80.0005C34.5644 80.0005 37.1003 79.3164 39.335 78.0231C39.7471 77.7858 40.0003 77.3445 40.0003 76.8698V73.3551C40.0003 71.1378 38.1471 69.3337 35.8683 69.3337ZM37.3336 76.0737C34.0149 77.727 29.9856 77.727 26.6669 76.0737V73.3551C26.6669 72.6084 27.3242 72.0005 28.1322 72.0005H35.8681C36.6761 72.0005 37.3335 72.6084 37.3335 73.3551V76.0737H37.3336Z" fill="url(#paint12_linear)"/>
<path d="M14.6667 17.3328C6.58 17.3328 0 23.9128 0 31.9995C0 40.0862 6.58 46.6662 14.6667 46.6662C22.7534 46.6662 29.3334 40.0862 29.3334 31.9995C29.3333 23.9128 22.7533 17.3328 14.6667 17.3328ZM14.6667 43.9995C8.04937 43.9995 2.66672 38.6168 2.66672 31.9995C2.66672 25.3821 8.04937 19.9995 14.6667 19.9995C21.2841 19.9995 26.6667 25.3821 26.6667 31.9995C26.6667 38.6168 21.2841 43.9995 14.6667 43.9995Z" fill="url(#paint13_linear)"/>
<path d="M14.6664 22.6672C11.725 22.6672 9.33313 25.0593 9.33313 28.0005C9.33313 30.9418 11.7252 33.3338 14.6664 33.3338C17.6078 33.3338 19.9997 30.9418 19.9997 28.0005C19.9997 25.0593 17.6077 22.6672 14.6664 22.6672ZM14.6664 30.6672C13.1958 30.6672 11.9997 29.4713 11.9997 28.0005C11.9997 26.5297 13.1956 25.3338 14.6664 25.3338C16.137 25.3338 17.3331 26.5297 17.3331 28.0005C17.3331 29.4713 16.137 30.6672 14.6664 30.6672Z" fill="url(#paint14_linear)"/>
<path d="M18.5347 35.9996H10.7988C8.52016 35.9996 6.66672 37.8037 6.66672 40.0196V43.5343C6.66672 44.0103 6.92 44.4503 7.33203 44.689C9.56672 45.9823 12.1027 46.6664 14.6667 46.6664C17.2308 46.6664 19.7667 45.9823 22.0014 44.689C22.4134 44.4517 22.6667 44.0103 22.6667 43.5357V40.021C22.6667 37.8037 20.8133 35.9996 18.5347 35.9996ZM20 42.7396C16.6814 44.3929 12.652 44.3929 9.33328 42.7396V40.021C9.33328 39.2743 9.99063 38.6664 10.7986 38.6664H18.5345C19.3425 38.6664 19.9998 39.2743 19.9998 40.021V42.7396H20Z" fill="url(#paint15_linear)"/>
<path d="M46.6669 0C38.5802 0 32.0002 6.58 32.0002 14.6667C32.0002 22.7534 38.5802 29.3334 46.6669 29.3334C54.7536 29.3334 61.3336 22.7534 61.3336 14.6667C61.3334 6.58 54.7535 0 46.6669 0ZM46.6669 26.6667C40.0496 26.6667 34.6669 21.2841 34.6669 14.6667C34.6669 8.04937 40.0496 2.66672 46.6669 2.66672C53.2842 2.66672 58.6669 8.04937 58.6669 14.6667C58.6669 21.2841 53.2842 26.6667 46.6669 26.6667Z" fill="url(#paint16_linear)"/>
<path d="M46.6666 5.3335C43.7252 5.3335 41.3333 7.72553 41.3333 10.6668C41.3333 13.608 43.7253 16.0001 46.6666 16.0001C49.6078 16.0001 51.9998 13.6082 51.9998 10.6669C51.9998 7.72568 49.6078 5.3335 46.6666 5.3335ZM46.6666 13.3335C45.1959 13.3335 43.9998 12.1376 43.9998 10.6668C43.9998 9.19615 45.1958 8.00006 46.6666 8.00006C48.1373 8.00006 49.3333 9.196 49.3333 10.6668C49.3331 12.1376 48.1372 13.3335 46.6666 13.3335Z" fill="url(#paint17_linear)"/>
<path d="M50.5348 18.6669H42.7989C40.5203 18.6669 38.6669 20.4709 38.6669 22.6869V26.2016C38.6669 26.6775 38.9202 27.1175 39.3322 27.3562C41.5669 28.6495 44.1028 29.3336 46.6669 29.3336C49.2309 29.3336 51.7669 28.6495 54.0015 27.3562C54.4136 27.1189 54.6669 26.6775 54.6669 26.203V22.6883C54.6669 20.4708 52.8134 18.6669 50.5348 18.6669ZM52.0001 25.4069C48.6815 27.0601 44.6522 27.0601 41.3334 25.4069V22.6883C41.3334 21.9416 41.9908 21.3336 42.7987 21.3336H50.5347C51.3426 21.3336 52 21.9416 52 22.6883V25.4069H52.0001Z" fill="url(#paint18_linear)"/>
<path d="M34.348 13.7981C33.8694 13.2408 33.028 13.1741 32.468 13.6528L23.228 21.5595C22.668 22.0381 22.6027 22.8796 23.0813 23.4396C23.3453 23.7475 23.7186 23.9063 24.0946 23.9063C24.4013 23.9063 24.7092 23.801 24.9613 23.5849L34.2013 15.6781C34.7614 15.1995 34.8267 14.3581 34.348 13.7981Z" fill="url(#paint19_linear)"/>
<path d="M63.7333 35.202L55.7333 24.5353C55.2919 23.9447 54.456 23.8286 53.8666 24.2686C53.2772 24.71 53.1586 25.5459 53.5999 26.1339L61.5999 36.8006C61.8625 37.15 62.2625 37.3339 62.6678 37.3339C62.9452 37.3339 63.2266 37.2472 63.4666 37.0672C64.056 36.6259 64.1747 35.79 63.7333 35.202Z" fill="url(#paint20_linear)"/>
<path d="M52.7907 53.7435C52.3492 53.1541 51.5133 53.0355 50.9239 53.4768L43.476 59.0621C42.8866 59.5035 42.768 60.3394 43.2092 60.9274C43.4719 61.2768 43.8719 61.4607 44.2772 61.4607C44.5558 61.4607 44.8358 61.3727 45.076 61.1939L52.5239 55.6086C53.1133 55.1675 53.2321 54.3315 52.7907 53.7435Z" fill="url(#paint21_linear)"/>
<path d="M18.6666 64.0004H9.33313C8.59719 64.0004 7.99985 64.5963 7.99985 65.3336C7.99985 66.071 8.59719 66.6669 9.33313 66.6669H18.6664C19.4023 66.6669 19.9997 66.071 19.9997 65.3336C19.9997 64.5963 19.4025 64.0004 18.6666 64.0004Z" fill="url(#paint22_linear)"/>
<path d="M14.6664 0C11.725 0 9.33295 2.39203 9.33295 5.33328C9.33295 8.27469 11.725 10.6666 14.6662 10.6666C17.6076 10.6666 19.9995 8.27453 19.9995 5.33328C19.9997 2.39203 17.6076 0 14.6664 0ZM14.6664 8C13.1958 8 11.9997 6.80406 11.9997 5.33328C11.9997 3.86266 13.1956 2.66656 14.6664 2.66656C16.137 2.66656 17.3331 3.8625 17.3331 5.33328C17.3329 6.80406 16.137 8 14.6664 8Z" fill="url(#paint23_linear)"/>
<path d="M14.6667 8.00061C13.9308 8.00061 13.3334 8.59655 13.3334 9.33389V18.6672C13.3334 19.4045 13.9308 20.0005 14.6667 20.0005C15.4027 20.0005 16 19.4045 16 18.6672V9.33389C16 8.59655 15.4027 8.00061 14.6667 8.00061Z" fill="url(#paint24_linear)"/>
</g>
<defs>
<linearGradient id="paint0_linear" x1="67.13" y1="24.7958" x2="80.2242" y2="24.4477" gradientUnits="userSpaceOnUse">
<stop stop-color="#FF0000"/>
<stop offset="1" stop-color="#822EED"/>
</linearGradient>
<linearGradient id="paint1_linear" x1="-2.20309" y1="68.7961" x2="10.8911" y2="68.4481" gradientUnits="userSpaceOnUse">
<stop stop-color="#FF0000"/>
<stop offset="1" stop-color="#822EED"/>
</linearGradient>
<linearGradient id="paint2_linear" x1="55.7392" y1="18.7789" x2="73.1092" y2="17.9833" gradientUnits="userSpaceOnUse">
<stop stop-color="#FF0000"/>
<stop offset="1" stop-color="#822EED"/>
</linearGradient>
<linearGradient id="paint3_linear" x1="52.4635" y1="78.13" x2="65.5577" y2="77.782" gradientUnits="userSpaceOnUse">
<stop stop-color="#FF0000"/>
<stop offset="1" stop-color="#822EED"/>
</linearGradient>
<linearGradient id="paint4_linear" x1="41.0726" y1="72.1111" x2="58.4427" y2="71.3155" gradientUnits="userSpaceOnUse">
<stop stop-color="#FF0000"/>
<stop offset="1" stop-color="#822EED"/>
</linearGradient>
<linearGradient id="paint5_linear" x1="32.4635" y1="44.7958" x2="45.5577" y2="44.4477" gradientUnits="userSpaceOnUse">
<stop stop-color="#FF0000"/>
<stop offset="1" stop-color="#822EED"/>
</linearGradient>
<linearGradient id="paint6_linear" x1="24.2907" y1="38.5452" x2="38.4076" y2="38.0934" gradientUnits="userSpaceOnUse">
<stop stop-color="#FF0000"/>
<stop offset="1" stop-color="#822EED"/>
</linearGradient>
<linearGradient id="paint7_linear" x1="43.2744" y1="58.8562" x2="79.2839" y2="57.8991" gradientUnits="userSpaceOnUse">
<stop stop-color="#FF0000"/>
<stop offset="1" stop-color="#822EED"/>
</linearGradient>
<linearGradient id="paint8_linear" x1="56.4638" y1="48.7961" x2="69.558" y2="48.4481" gradientUnits="userSpaceOnUse">
<stop stop-color="#FF0000"/>
<stop offset="1" stop-color="#822EED"/>
</linearGradient>
<linearGradient id="paint9_linear" x1="52.695" y1="62.1304" x2="72.3192" y2="61.348" gradientUnits="userSpaceOnUse">
<stop stop-color="#FF0000"/>
<stop offset="1" stop-color="#822EED"/>
</linearGradient>
<linearGradient id="paint10_linear" x1="11.275" y1="74.8558" x2="47.2845" y2="73.8987" gradientUnits="userSpaceOnUse">
<stop stop-color="#FF0000"/>
<stop offset="1" stop-color="#822EED"/>
</linearGradient>
<linearGradient id="paint11_linear" x1="24.4637" y1="64.7958" x2="37.5578" y2="64.4477" gradientUnits="userSpaceOnUse">
<stop stop-color="#FF0000"/>
<stop offset="1" stop-color="#822EED"/>
</linearGradient>
<linearGradient id="paint12_linear" x1="20.6957" y1="78.13" x2="40.3198" y2="77.3476" gradientUnits="userSpaceOnUse">
<stop stop-color="#FF0000"/>
<stop offset="1" stop-color="#822EED"/>
</linearGradient>
<linearGradient id="paint13_linear" x1="-6.05859" y1="41.5224" x2="29.9509" y2="40.5654" gradientUnits="userSpaceOnUse">
<stop stop-color="#FF0000"/>
<stop offset="1" stop-color="#822EED"/>
</linearGradient>
<linearGradient id="paint14_linear" x1="7.13003" y1="31.4634" x2="20.2242" y2="31.1153" gradientUnits="userSpaceOnUse">
<stop stop-color="#FF0000"/>
<stop offset="1" stop-color="#822EED"/>
</linearGradient>
<linearGradient id="paint15_linear" x1="3.36204" y1="44.7959" x2="22.9862" y2="44.0135" gradientUnits="userSpaceOnUse">
<stop stop-color="#FF0000"/>
<stop offset="1" stop-color="#822EED"/>
</linearGradient>
<linearGradient id="paint16_linear" x1="25.9416" y1="24.1897" x2="61.9511" y2="23.2326" gradientUnits="userSpaceOnUse">
<stop stop-color="#FF0000"/>
<stop offset="1" stop-color="#822EED"/>
</linearGradient>
<linearGradient id="paint17_linear" x1="39.1302" y1="14.1296" x2="52.2244" y2="13.7816" gradientUnits="userSpaceOnUse">
<stop stop-color="#FF0000"/>
<stop offset="1" stop-color="#822EED"/>
</linearGradient>
<linearGradient id="paint18_linear" x1="35.3622" y1="27.4631" x2="54.9863" y2="26.6808" gradientUnits="userSpaceOnUse">
<stop stop-color="#FF0000"/>
<stop offset="1" stop-color="#822EED"/>
</linearGradient>
<linearGradient id="paint19_linear" x1="20.3018" y1="22.0522" x2="34.9162" y2="21.6148" gradientUnits="userSpaceOnUse">
<stop stop-color="#FF0000"/>
<stop offset="1" stop-color="#822EED"/>
</linearGradient>
<linearGradient id="paint20_linear" x1="51.1302" y1="34.9961" x2="64.2278" y2="34.7176" gradientUnits="userSpaceOnUse">
<stop stop-color="#FF0000"/>
<stop offset="1" stop-color="#822EED"/>
</linearGradient>
<linearGradient id="paint21_linear" x1="40.8536" y1="60.0139" x2="53.2658" y2="59.6095" gradientUnits="userSpaceOnUse">
<stop stop-color="#FF0000"/>
<stop offset="1" stop-color="#822EED"/>
</linearGradient>
<linearGradient id="paint22_linear" x1="5.52138" y1="66.1993" x2="20.0548" y2="64.4611" gradientUnits="userSpaceOnUse">
<stop stop-color="#FF0000"/>
<stop offset="1" stop-color="#822EED"/>
</linearGradient>
<linearGradient id="paint23_linear" x1="7.12985" y1="8.79613" x2="20.224" y2="8.44811" gradientUnits="userSpaceOnUse">
<stop stop-color="#FF0000"/>
<stop offset="1" stop-color="#822EED"/>
</linearGradient>
<linearGradient id="paint24_linear" x1="12.7827" y1="17.8962" x2="16.0583" y2="17.8769" gradientUnits="userSpaceOnUse">
<stop stop-color="#FF0000"/>
<stop offset="1" stop-color="#822EED"/>
</linearGradient>
<clipPath id="clip0">
<rect width="80" height="80" fill="white"/>
</clipPath>
</defs>
</svg>
