<svg width="80" height="80" viewBox="0 0 80 80" fill="none" xmlns="http://www.w3.org/2000/svg">
<g clip-path="url(#clip0)">
<path d="M77.9168 57.2608C76.4245 55.0676 73.8931 54.5322 71.1431 55.8262L69.6856 56.468C71.9837 51.5695 72.2689 46.1091 71.1248 40.9512C69.8109 35.0273 66.6373 29.2886 61.6923 23.8944C61.2551 23.4173 60.514 23.3852 60.0368 23.8225C59.5598 24.2597 59.5276 25.0008 59.965 25.478C64.6284 30.5648 67.6134 35.9416 68.8371 41.4586C70.126 47.27 69.3762 53.2631 66.087 58.0523L51.5023 64.4741L51.5143 62.8269C51.5146 62.7853 51.5128 62.7437 51.5085 62.7023C51.1718 59.3169 48.584 56.6195 45.2154 56.143C45.2054 56.1414 45.1954 56.1402 45.1853 56.1391L32.2226 54.6466C27.2381 53.937 25.9543 50.95 19.2037 49.2467C18.7373 45.2889 19.359 41.075 21.0631 36.8505C23.6295 30.4883 28.6503 24.307 35.6106 18.9269C38.2048 20.7662 49.7787 20.9952 52.3687 18.6223C53.6956 19.63 54.962 20.6684 56.1417 21.7195C56.365 21.9186 56.6434 22.0164 56.9207 22.0164C57.2432 22.0164 57.5645 21.8841 57.7959 21.6242C58.2264 21.1411 58.1835 20.4005 57.7004 19.97C56.4073 18.818 55.0164 17.6812 53.5574 16.5827C53.8993 15.133 53.4209 13.4362 52.1584 12.4262C55.827 6.86187 56.894 3.21984 55.4201 1.31172C54.4078 0.000934005 53.1484 0.61609 52.6106 0.878903C51.699 1.3239 51.202 1.34734 50.3632 0.79859C48.7631 -0.248441 47.0812 -0.282191 45.4295 0.79859C44.5801 1.35437 43.9112 1.35437 43.0621 0.79859C41.4618 -0.248441 39.7806 -0.282191 38.1285 0.79859C37.2801 1.3539 36.7812 1.31953 35.884 0.87359C35.3468 0.606559 34.0889 -0.0187536 33.0701 1.29218C31.6293 3.14656 32.5932 6.67375 36.0143 12.0489C35.8048 12.1622 35.6051 12.2952 35.4187 12.447C34.0581 11.0102 31.8289 9.51156 28.6051 9.87156C25.9312 10.1708 23.9595 9.28718 22.776 8.49343C22.2385 8.13343 21.5107 8.27687 21.1504 8.81406C20.7901 9.35156 20.9337 10.0794 21.471 10.4397C22.9796 11.4511 25.4868 12.577 28.8651 12.2003C31.3557 11.9209 33.0457 13.1937 34.0978 14.4891C34.0834 14.5391 34.0701 14.5894 34.0578 14.6397C33.1604 14.6537 31.8193 14.7375 30.3424 15.0447C26.7906 15.7836 24.154 17.4716 22.7176 19.9266C22.3909 20.485 22.5787 21.2028 23.1371 21.5297C23.6957 21.8564 24.4134 21.6684 24.7401 21.11C26.8767 17.4586 32.0918 17.012 34.1632 16.9841C34.1721 17.0098 34.1826 17.0353 34.192 17.0609C26.8001 22.763 21.6539 29.1219 18.8901 35.9734C17.1432 40.3042 16.4454 44.643 16.7996 48.7662C15.676 48.6 14.5395 48.5108 13.3974 48.503V47.7944C13.3974 45.9195 11.8721 44.3944 9.99729 44.3944H4.61854C2.7437 44.3944 1.21839 45.9197 1.21839 47.7944V75.0825C1.21839 76.9575 2.7437 78.4827 4.61854 78.4827H9.99714C11.872 78.4827 13.3973 76.9573 13.3973 75.0825V74.7487L25.1303 79.1158C26.707 79.7025 28.3595 80.0002 30.0418 80.0002H47.524C50.1968 80.0002 52.8029 79.2439 55.0604 77.8134C78.3821 63.0291 76.9659 63.9489 77.1006 63.8295C78.9792 62.162 79.3301 59.338 77.9168 57.2608ZM50.17 17.2339C45.8853 18.3158 41.7193 18.3158 37.4337 17.2339C35.5948 16.7691 36.1276 13.4894 38.1039 13.985C41.9379 14.9475 45.6654 14.9475 49.4998 13.985C51.4417 13.4975 52.0384 16.7617 50.17 17.2339ZM34.8139 2.95875C34.8231 2.96328 34.8323 2.96797 34.841 2.97234C36.4268 3.76047 37.8164 3.80328 39.4115 2.75968C41.4078 1.45297 41.6245 3.54812 44.2456 3.54812C45.5075 3.54812 46.2039 3.0925 46.7123 2.75968C47.5618 2.20375 48.2309 2.20406 49.0803 2.75968C50.6825 3.80812 52.0384 3.7564 53.6703 2.96937C53.9114 3.83843 53.3657 6.42921 49.8914 11.602C48.166 11.5727 45.6623 13.2672 38.5745 11.6898C35.1076 6.45015 34.5715 3.83422 34.8139 2.95875ZM75.6084 62.0197L53.8062 75.8348C51.9245 77.0272 49.7521 77.6577 47.5242 77.6577H30.042C28.6396 77.6577 27.2621 77.4095 25.9478 76.9203L13.3973 72.2489V59.6309C13.3973 58.9837 12.8728 58.4592 12.2257 58.4592C11.5787 58.4592 11.0542 58.9837 11.0542 59.6309V75.0831C11.0542 75.6659 10.5799 76.14 9.99729 76.14H4.61854C4.03573 76.14 3.56167 75.6658 3.56167 75.0831V47.795C3.56167 47.2122 4.03573 46.7383 4.61854 46.7383H9.99714C10.5799 46.7383 11.054 47.2123 11.054 47.795V54.1534C11.054 54.8006 11.5785 55.3251 12.2256 55.3251C12.8726 55.3251 13.3971 54.8006 13.3971 54.1534V50.8469C23.0895 50.9211 25.2687 56.0297 31.909 56.9689C31.919 56.9705 31.929 56.9717 31.939 56.9728L44.901 58.4652C47.1707 58.7928 48.9174 60.6002 49.1703 62.8756L49.154 65.1044H37.0657C36.4187 65.1044 35.894 65.6289 35.894 66.2761C35.894 66.9233 36.4185 67.4478 37.0657 67.4478H50.3171C50.4651 67.4478 50.636 67.415 50.7848 67.3502C50.8087 67.3395 72.0759 57.9759 72.1007 57.965C73.6337 57.2837 75.0314 57.1864 75.9792 58.5792C76.716 59.6616 76.5529 61.1248 75.6084 62.0197Z" fill="url(#paint0_linear)"/>
<path d="M44.1103 53.1599C44.7574 53.1599 45.282 52.6353 45.282 51.9881V50.046C48.5713 49.5122 50.4905 46.8499 50.908 44.3661C51.4295 41.2635 49.8044 38.5652 46.7678 37.4919C46.2313 37.3022 45.7375 37.1208 45.2819 36.9456V29.475C46.668 29.7049 47.5002 30.4222 47.5608 30.4758C48.0367 30.9086 48.7733 30.8766 49.21 30.4031C49.6488 29.9275 49.6188 29.1863 49.1431 28.7475C49.0605 28.6713 47.6255 27.3792 45.2819 27.1091V25.4428C45.2819 24.7956 44.7574 24.2711 44.1102 24.2711C43.4631 24.2711 42.9386 24.7956 42.9386 25.4428V27.2038C42.6561 27.2578 42.3667 27.3266 42.0694 27.4161C40.0819 28.0147 38.5963 29.7189 38.192 31.8635C37.8253 33.8096 38.4423 35.6811 39.8022 36.7477C40.583 37.36 41.5658 37.9206 42.9386 38.52V47.7858C41.5836 47.7285 40.7495 47.4741 39.2945 46.5222C38.7531 46.1681 38.0269 46.3196 37.6727 46.8613C37.3184 47.4027 37.4702 48.1289 38.0117 48.4831C39.9244 49.7344 41.203 50.0608 42.9386 50.1283V51.9881C42.9386 52.6353 43.4631 53.1599 44.1103 53.1599ZM41.2484 34.9039C40.5795 34.3792 40.2906 33.3805 40.4949 32.2975C40.6842 31.2931 41.3747 30.0728 42.7453 29.66C42.8105 29.6403 42.8745 29.6235 42.9386 29.6063V35.9352C42.237 35.5849 41.6869 35.2478 41.2484 34.9039ZM45.9869 39.7013C48.9025 40.7317 48.7219 43.2352 48.597 43.9778C48.3386 45.5155 47.2099 47.1571 45.2819 47.6511V39.4474C45.51 39.5308 45.743 39.615 45.9869 39.7013Z" fill="url(#paint1_linear)"/>
</g>
<defs>
<linearGradient id="paint0_linear" x1="-14.8017" y1="65.9718" x2="80.4185" y2="63.5181" gradientUnits="userSpaceOnUse">
<stop stop-color="#FF0000"/>
<stop offset="1" stop-color="#822EED"/>
</linearGradient>
<linearGradient id="paint1_linear" x1="34.6883" y1="48.0941" x2="51.2982" y2="47.8874" gradientUnits="userSpaceOnUse">
<stop stop-color="#FF0000"/>
<stop offset="1" stop-color="#822EED"/>
</linearGradient>
<clipPath id="clip0">
<rect width="80" height="80" fill="white"/>
</clipPath>
</defs>
</svg>
