<svg width="80" height="80" viewBox="0 0 80 80" fill="none" xmlns="http://www.w3.org/2000/svg">
<g clip-path="url(#clip0)">
<path d="M73.0063 48.3978V77.0723C73.0063 77.7809 72.5678 78.6048 72.0717 79.092C71.5713 79.5836 70.7386 80 70.0299 80H61.9335H53.8281C53.1239 80 52.2867 79.5703 51.7996 79.092C51.2902 78.5916 50.865 77.7722 50.865 77.0503V48.3978C49.5894 48.1586 48.4424 47.5297 47.5608 46.6436C46.365 45.4478 45.7139 43.8487 45.7139 42.1745V26.3714C45.7139 24.0639 46.6528 21.9644 48.1721 20.4452C49.6913 18.9258 51.7861 17.9823 54.0938 17.9823H55.0152C54.0319 16.6005 53.4561 14.9128 53.4561 13.0969V5.26625C53.4561 3.82234 54.0496 2.50688 55.0019 1.55031C55.9585 0.593594 57.2739 0 58.7178 0H65.1535C66.5974 0 67.9128 0.593594 68.8696 1.55031C69.8217 2.50688 70.4153 3.82234 70.4153 5.26625V13.097C70.4153 14.913 69.8396 16.6006 68.8563 17.9825H69.7775C72.0852 17.9825 74.18 18.9259 75.6994 20.4453C77.2186 21.9645 78.1619 24.0639 78.1619 26.3716V42.1748C78.1619 43.92 77.4533 45.5011 76.3105 46.6439C75.4289 47.5297 74.2817 48.1586 73.0063 48.3978ZM14.4974 37.0502C14.9535 36.5939 15.6977 36.5939 16.1539 37.0502C16.61 37.5064 16.61 38.2505 16.1539 38.7067L11.9108 42.9542C11.4502 43.4105 10.7105 43.4105 10.2542 42.9542L7.54815 40.2481C7.0919 39.7919 7.0919 39.0477 7.54815 38.5916C8.00877 38.1353 8.74846 38.1353 9.20908 38.5916L11.0825 40.465L14.4974 37.0502ZM14.4974 60.3742C14.9535 59.918 15.6977 59.918 16.1539 60.3742C16.61 60.8306 16.61 61.5747 16.1539 62.0309L11.9108 66.2786C11.4502 66.7348 10.7105 66.7348 10.2542 66.2786L7.54815 63.5723C7.0919 63.1163 7.0919 62.372 7.54815 61.9158C8.00877 61.4597 8.74846 61.4597 9.20908 61.9158L11.0825 63.7894L14.4974 60.3742ZM14.4974 13.7261C14.9535 13.2698 15.6977 13.2698 16.1539 13.7261C16.61 14.1823 16.61 14.9264 16.1539 15.3825L11.9108 19.6256C11.4502 20.0863 10.7105 20.0863 10.2542 19.6256L7.54815 16.9237C7.0919 16.4677 7.0919 15.7234 7.54815 15.2672C8.00877 14.8111 8.74846 14.8111 9.20908 15.2672L11.0825 17.1408L14.4974 13.7261ZM68.0722 10.6611C66.1633 10.9709 62.8503 11.0288 60.153 8.57938C59.2316 9.13734 57.6903 9.80625 55.7991 9.58922V13.097C55.7991 14.7847 56.49 16.317 57.6017 17.4289C58.7135 18.545 60.2503 19.2358 61.9335 19.2358C63.621 19.2358 65.1535 18.5448 66.2696 17.4289C67.3813 16.3172 68.0722 14.7847 68.0722 13.097V10.6611ZM55.7991 7.22859C57.1235 7.46766 58.5141 7.03813 59.5196 6.16094C60.0067 5.73578 60.7464 5.78891 61.1716 6.27609C63.4438 8.88953 66.6194 8.59703 68.0722 8.28703V5.26625C68.0722 4.46016 67.7444 3.72937 67.213 3.19781C66.6858 2.67078 65.9596 2.34297 65.1535 2.34297H58.7178C57.9117 2.34297 57.1853 2.67078 56.6583 3.19781C56.1269 3.72937 55.7991 4.46016 55.7991 5.26625V7.22859ZM57.5131 20.3256H54.0938C52.4328 20.3256 50.9225 21.0077 49.8286 22.1017C48.6947 23.24 48.048 24.7636 48.048 26.3714V42.1703C48.048 43.22 48.4644 44.2433 49.2172 44.9961C49.9303 45.7136 50.9224 46.1609 52.0208 46.1609H53.9874V29.525C53.9874 28.8783 54.5144 28.3512 55.1611 28.3512C55.8078 28.3512 56.3303 28.8783 56.3303 29.525V46.1609H67.5405V29.525C67.5405 28.8783 68.0631 28.3512 68.7097 28.3512C69.3564 28.3512 69.8835 28.8783 69.8835 29.525V46.1609H71.85C72.9485 46.1609 73.9361 45.7136 74.6536 44.9961C75.3756 44.2786 75.8185 43.2777 75.8185 42.1747V26.3714C75.8185 24.7105 75.1408 23.2 74.0424 22.1017C72.9483 21.0077 71.438 20.3256 69.7771 20.3256H66.3533C65.0646 21.1184 63.5542 21.5791 61.9331 21.5791C60.3167 21.5791 58.8021 21.1184 57.5131 20.3256ZM25.2646 59.4884C24.6178 59.4884 24.0908 58.9658 24.0908 58.3192C24.0908 57.6727 24.6178 57.1455 25.2646 57.1455H39.885C40.5317 57.1455 41.0544 57.6725 41.0544 58.3192C41.0544 58.9659 40.5317 59.4884 39.885 59.4884H25.2646ZM25.2646 69.5027C24.6178 69.5027 24.0908 68.98 24.0908 68.3334C24.0908 67.6867 24.6178 67.1597 25.2646 67.1597H35.1281C35.7749 67.1597 36.3019 67.6867 36.3019 68.3334C36.3019 68.9802 35.7749 69.5027 35.1281 69.5027H25.2646ZM25.2646 64.4978C24.6178 64.4978 24.0908 63.9708 24.0908 63.3241C24.0908 62.6773 24.6178 62.1548 25.2646 62.1548H39.885C40.5317 62.1548 41.0544 62.6775 41.0544 63.3241C41.0544 63.9708 40.5317 64.4978 39.885 64.4978H25.2646ZM25.2646 36.1644C24.6178 36.1644 24.0908 35.6417 24.0908 34.9952C24.0908 34.3484 24.6178 33.8214 25.2646 33.8214H39.885C40.5317 33.8214 41.0544 34.3484 41.0544 34.9952C41.0544 35.6419 40.5317 36.1644 39.885 36.1644H25.2646ZM25.2646 46.1786C24.6178 46.1786 24.0908 45.6559 24.0908 45.0094C24.0908 44.3627 24.6178 43.8356 25.2646 43.8356H35.1281C35.7749 43.8356 36.3019 44.3627 36.3019 45.0094C36.3019 45.6561 35.7749 46.1786 35.1281 46.1786H25.2646ZM25.2646 41.1737C24.6178 41.1737 24.0908 40.6467 24.0908 40C24.0908 39.3533 24.6178 38.8308 25.2646 38.8308H39.885C40.5317 38.8308 41.0544 39.3534 41.0544 40C41.0544 40.6466 40.5317 41.1737 39.885 41.1737H25.2646ZM25.2646 12.8403C24.6178 12.8403 24.0908 12.3177 24.0908 11.6711C24.0908 11.0244 24.6178 10.4973 25.2646 10.4973H39.885C40.5317 10.4973 41.0544 11.0244 41.0544 11.6711C41.0544 12.3178 40.5317 12.8403 39.885 12.8403H25.2646ZM25.2646 22.8547C24.6178 22.8547 24.0908 22.332 24.0908 21.6855C24.0908 21.0344 24.6178 20.5117 25.2646 20.5117H35.1281C35.7749 20.5117 36.3019 21.0344 36.3019 21.6855C36.3019 22.3322 35.7749 22.8547 35.1281 22.8547H25.2646ZM25.2646 17.8495C24.6178 17.8495 24.0908 17.3225 24.0908 16.6758C24.0908 16.0291 24.6178 15.5066 25.2646 15.5066H39.885C40.5317 15.5066 41.0544 16.0292 41.0544 16.6758C41.0544 17.3223 40.5317 17.8495 39.885 17.8495H25.2646ZM1.83893 55.4889C1.83893 54.2884 2.81768 53.3141 4.01362 53.3141H19.6883C20.8886 53.3141 21.8675 54.2884 21.8675 55.4889V71.1636C21.8675 72.3595 20.8842 73.3383 19.6883 73.3383H4.01362C2.82221 73.3383 1.83893 72.355 1.83893 71.1636V55.4889ZM19.52 55.6572H4.1819V70.9953H19.52V55.6572ZM1.83893 8.84078C1.83893 7.64484 2.82221 6.66156 4.01362 6.66156H19.6883C20.8842 6.66156 21.8675 7.64484 21.8675 8.84078V24.5155C21.8675 25.7114 20.8842 26.6902 19.6883 26.6902H4.01362C2.81768 26.6902 1.83893 25.7114 1.83893 24.5155V8.84078ZM19.52 9.00906H4.1819V24.3472H19.52V9.00906ZM1.83893 32.1648C1.83893 30.9689 2.81768 29.9902 4.01362 29.9902H19.6883C20.8886 29.9902 21.8675 30.9644 21.8675 32.1648V47.8397C21.8675 49.0356 20.8886 50.0145 19.6883 50.0145H4.01362C2.81768 50.0145 1.83893 49.0356 1.83893 47.8397V32.1648ZM19.52 32.3331H4.1819V47.6714H19.52V32.3331ZM60.7641 77.657V53.7261C60.7641 53.0794 61.2867 52.5569 61.9333 52.5569C62.5844 52.5569 63.1071 53.0795 63.1071 53.7261V77.657H69.9766C70.3177 77.5948 70.5967 77.3425 70.6631 77.0016V48.5041C64.8431 48.5041 59.0278 48.5041 53.208 48.5041V77.0016C53.2744 77.3427 53.5535 77.595 53.8946 77.657H60.7641Z" fill="url(#paint0_linear)"/>
</g>
<defs>
<linearGradient id="paint0_linear" x1="-13.925" y1="65.9716" x2="79.7745" y2="63.5957" gradientUnits="userSpaceOnUse">
<stop stop-color="#FF0000"/>
<stop offset="1" stop-color="#822EED"/>
</linearGradient>
<clipPath id="clip0">
<rect width="80" height="80" fill="white"/>
</clipPath>
</defs>
</svg>
