<svg width="80" height="80" viewBox="0 0 80 80" fill="none" xmlns="http://www.w3.org/2000/svg">
<path d="M64.6885 23.2422C65.5513 23.2422 66.251 22.5427 66.251 21.6797V4.6875C66.251 2.10281 64.1482 0 61.5635 0H4.68848C2.10379 0 0.000976562 2.10281 0.000976562 4.6875V75.3125C0.000976562 77.8972 2.10379 80 4.68848 80H61.5635C64.1482 80 66.251 77.8972 66.251 75.3125V63.8013C66.251 62.9383 65.5513 62.2388 64.6885 62.2388C63.8257 62.2388 63.126 62.9383 63.126 63.8013V75.3125C63.126 76.1741 62.425 76.875 61.5635 76.875H4.68848C3.82691 76.875 3.12598 76.1741 3.12598 75.3125V4.6875C3.12598 3.82594 3.82691 3.125 4.68848 3.125H61.5635C62.425 3.125 63.126 3.82594 63.126 4.6875V21.6797C63.126 22.5427 63.8257 23.2422 64.6885 23.2422Z" fill="url(#paint0_linear)"/>
<path d="M33.126 8.4375C25.1996 8.4375 18.751 14.8861 18.751 22.8125C18.751 26.9245 20.4869 30.6383 23.2638 33.2608C23.3158 33.3164 23.3711 33.3691 23.4316 33.417C25.9896 35.7575 29.3938 37.1873 33.1258 37.1873C36.8578 37.1873 40.2621 35.7573 42.82 33.417C42.8805 33.3691 42.9358 33.3162 42.9878 33.2608C45.765 30.6383 47.501 26.9245 47.501 22.8125C47.501 14.8861 41.0524 8.4375 33.126 8.4375ZM33.126 34.0625C30.5746 34.0625 28.2199 33.2075 26.3305 31.7706C27.7038 29.3355 30.2664 27.8125 33.126 27.8125C35.9855 27.8125 38.5482 29.3355 39.9214 31.7706C38.0319 33.2075 35.6774 34.0625 33.126 34.0625ZM30.626 22.1875V21.1719C30.626 19.7934 31.7475 18.6719 33.126 18.6719C34.5044 18.6719 35.626 19.7934 35.626 21.1719V22.1875C35.626 23.5659 34.5044 24.6875 33.126 24.6875C31.7475 24.6875 30.626 23.5659 30.626 22.1875ZM42.1791 29.4817C41.0267 27.7727 39.4297 26.4434 37.5755 25.6228C38.3114 24.6717 38.751 23.4803 38.751 22.1875V21.1719C38.751 18.0702 36.2277 15.5469 33.126 15.5469C30.0243 15.5469 27.501 18.0702 27.501 21.1719V22.1875C27.501 23.4803 27.9405 24.6717 28.6764 25.6228C26.8222 26.4434 25.2252 27.7727 24.0728 29.4817C22.6933 27.6141 21.876 25.3073 21.876 22.8125C21.876 16.6092 26.9227 11.5625 33.126 11.5625C39.3292 11.5625 44.376 16.6092 44.376 22.8125C44.376 25.3073 43.5586 27.6141 42.1791 29.4817Z" fill="url(#paint1_linear)"/>
<path d="M41.5635 68.4375H33.126C32.2632 68.4375 31.5635 69.137 31.5635 70C31.5635 70.863 32.2632 71.5625 33.126 71.5625H41.5635C42.4263 71.5625 43.126 70.863 43.126 70C43.126 69.137 42.4263 68.4375 41.5635 68.4375Z" fill="url(#paint2_linear)"/>
<path d="M41.5635 59.6875H19.376C18.5132 59.6875 17.8135 60.387 17.8135 61.25C17.8135 62.113 18.5132 62.8125 19.376 62.8125H41.5635C42.4263 62.8125 43.126 62.113 43.126 61.25C43.126 60.387 42.4263 59.6875 41.5635 59.6875Z" fill="url(#paint3_linear)"/>
<path d="M41.5635 50.9375H19.376C18.5132 50.9375 17.8135 51.637 17.8135 52.5C17.8135 53.363 18.5132 54.0625 19.376 54.0625H41.5635C42.4263 54.0625 43.126 53.363 43.126 52.5C43.126 51.637 42.4263 50.9375 41.5635 50.9375Z" fill="url(#paint4_linear)"/>
<path d="M13.8073 42.6453C13.5168 42.3547 13.1137 42.1875 12.7012 42.1875C12.2901 42.1875 11.887 42.3547 11.5965 42.6453C11.3059 42.9359 11.1387 43.3391 11.1387 43.75C11.1387 44.1609 11.3057 44.5641 11.5965 44.8547C11.8887 45.1453 12.2901 45.3125 12.7012 45.3125C13.1137 45.3125 13.5152 45.1453 13.8073 44.8547C14.0979 44.5641 14.2652 44.1609 14.2652 43.75C14.2652 43.3391 14.098 42.9359 13.8073 42.6453Z" fill="url(#paint5_linear)"/>
<path d="M13.8073 51.3953C13.5152 51.1047 13.1137 50.9375 12.7012 50.9375C12.2901 50.9375 11.8887 51.1047 11.5965 51.3953C11.3059 51.6859 11.1387 52.0891 11.1387 52.5C11.1387 52.9109 11.3057 53.3141 11.5965 53.6047C11.8887 53.8953 12.2901 54.0625 12.7012 54.0625C13.1137 54.0625 13.5152 53.8953 13.8073 53.6047C14.0979 53.3141 14.2652 52.9109 14.2652 52.5C14.2652 52.0891 14.098 51.6859 13.8073 51.3953Z" fill="url(#paint6_linear)"/>
<path d="M13.8073 60.1453C13.5152 59.8547 13.1137 59.6875 12.7012 59.6875C12.2901 59.6875 11.8887 59.8547 11.5965 60.1453C11.3059 60.4359 11.1387 60.8391 11.1387 61.25C11.1387 61.6609 11.3057 62.0641 11.5965 62.3547C11.887 62.6453 12.2901 62.8125 12.7012 62.8125C13.1137 62.8125 13.5168 62.6453 13.8073 62.3547C14.0979 62.0641 14.2652 61.6609 14.2652 61.25C14.2652 60.8391 14.098 60.4359 13.8073 60.1453Z" fill="url(#paint7_linear)"/>
<path d="M41.5635 42.1875H19.376C18.5132 42.1875 17.8135 42.887 17.8135 43.75C17.8135 44.613 18.5132 45.3125 19.376 45.3125H41.5635C42.4263 45.3125 43.126 44.613 43.126 43.75C43.126 42.887 42.4263 42.1875 41.5635 42.1875Z" fill="url(#paint8_linear)"/>
<path d="M76.7198 20.362C75.2018 19.4856 73.4334 19.2528 71.7399 19.7064C70.0468 20.1601 68.6315 21.246 67.7552 22.764L48.0924 56.8207C47.9848 57.0075 47.9166 57.2145 47.8927 57.4287L46.5087 69.8262C46.4399 70.4431 46.7427 71.0423 47.2802 71.3528C47.5229 71.4928 47.7924 71.5621 48.0613 71.5621C48.3882 71.5621 48.7138 71.4598 48.9881 71.2578L59.0324 63.8603C59.206 63.7325 59.3513 63.5701 59.459 63.3834L79.1216 29.3267C80.931 26.1929 79.8535 22.1714 76.7198 20.362ZM50.0105 66.6236L50.7334 60.1498L55.2556 62.7607L50.0105 66.6236ZM57.534 60.4676L51.5801 57.0301L67.359 29.7004L73.3129 33.1379L57.534 60.4676ZM76.4154 27.764L74.8752 30.4317L68.9213 26.9942L70.4615 24.3265C70.9205 23.5314 71.6618 22.9626 72.5487 22.725C73.4359 22.4871 74.3621 22.6093 75.1571 23.0684C75.9523 23.5275 76.521 24.2687 76.7587 25.1556C76.9963 26.0425 76.8745 26.9689 76.4154 27.764Z" fill="url(#paint9_linear)"/>
<defs>
<linearGradient id="paint0_linear" x1="-13.6824" y1="65.9716" x2="67.6636" y2="64.1812" gradientUnits="userSpaceOnUse">
<stop stop-color="#FF0000"/>
<stop offset="1" stop-color="#822EED"/>
</linearGradient>
<linearGradient id="paint1_linear" x1="12.8129" y1="32.1459" x2="48.1062" y2="31.2079" gradientUnits="userSpaceOnUse">
<stop stop-color="#FF0000"/>
<stop offset="1" stop-color="#822EED"/>
</linearGradient>
<linearGradient id="paint2_linear" x1="29.1753" y1="71.0145" x2="43.2433" y2="69.6311" gradientUnits="userSpaceOnUse">
<stop stop-color="#FF0000"/>
<stop offset="1" stop-color="#822EED"/>
</linearGradient>
<linearGradient id="paint3_linear" x1="12.5854" y1="62.2645" x2="42.3034" y2="55.8668" gradientUnits="userSpaceOnUse">
<stop stop-color="#FF0000"/>
<stop offset="1" stop-color="#822EED"/>
</linearGradient>
<linearGradient id="paint4_linear" x1="12.5854" y1="53.5145" x2="42.3034" y2="47.1168" gradientUnits="userSpaceOnUse">
<stop stop-color="#FF0000"/>
<stop offset="1" stop-color="#822EED"/>
</linearGradient>
<linearGradient id="paint5_linear" x1="10.4929" y1="44.7645" x2="14.331" y2="44.6625" gradientUnits="userSpaceOnUse">
<stop stop-color="#FF0000"/>
<stop offset="1" stop-color="#822EED"/>
</linearGradient>
<linearGradient id="paint6_linear" x1="10.4929" y1="53.5145" x2="14.331" y2="53.4125" gradientUnits="userSpaceOnUse">
<stop stop-color="#FF0000"/>
<stop offset="1" stop-color="#822EED"/>
</linearGradient>
<linearGradient id="paint7_linear" x1="10.4929" y1="62.2645" x2="14.331" y2="62.1625" gradientUnits="userSpaceOnUse">
<stop stop-color="#FF0000"/>
<stop offset="1" stop-color="#822EED"/>
</linearGradient>
<linearGradient id="paint8_linear" x1="12.5854" y1="44.7645" x2="42.3034" y2="38.3668" gradientUnits="userSpaceOnUse">
<stop stop-color="#FF0000"/>
<stop offset="1" stop-color="#822EED"/>
</linearGradient>
<linearGradient id="paint9_linear" x1="39.5797" y1="62.4293" x2="80.7219" y2="61.7259" gradientUnits="userSpaceOnUse">
<stop stop-color="#FF0000"/>
<stop offset="1" stop-color="#822EED"/>
</linearGradient>
</defs>
</svg>
