<svg width="80" height="80" viewBox="0 0 80 80" fill="none" xmlns="http://www.w3.org/2000/svg">
<g clip-path="url(#clip0)">
<path d="M70.2389 53.1284C71.2592 51.7942 71.867 50.1285 71.867 48.3231V45.5554C71.867 41.184 68.3106 37.6278 63.9394 37.6278C59.5681 37.6278 56.0117 41.1842 56.0117 45.5554V48.3231C56.0117 50.1275 56.6187 51.792 57.6378 53.1257H48.7689C50.9116 51.0762 52.25 48.1928 52.25 45.0007V37.8054C52.25 31.6021 47.2033 26.5554 41 26.5554C34.7967 26.5554 29.75 31.6021 29.75 37.8054V45.0007C29.75 48.1928 31.0884 51.0762 33.2309 53.1257H24.362C25.3811 51.7918 25.9881 50.1273 25.9881 48.3231V45.5554C25.9881 41.184 22.4317 37.6278 18.0605 37.6278C13.6892 37.6278 10.1328 41.184 10.1328 45.5554V48.3231C10.1328 50.1287 10.7408 51.7942 11.7609 53.1284C5.81781 53.1856 1 58.0359 1 63.9923V69.9095C1 70.7723 1.69969 71.472 2.5625 71.472H15.0625V78.4382C15.0625 79.301 15.7622 80.0007 16.625 80.0007H21.0002C21.863 80.0007 22.5627 79.301 22.5627 78.4382C22.5627 77.5754 21.863 76.8757 21.0002 76.8757H18.1875V69.2632C18.1875 62.4342 23.4766 56.821 30.1728 56.295L38.665 76.8757H35.0617C34.1989 76.8757 33.4992 77.5754 33.4992 78.4382C33.4992 79.301 34.1989 80.0007 35.0617 80.0007H65.375C66.2378 80.0007 66.9375 79.301 66.9375 78.4382V71.472H79.4375C80.3003 71.472 81 70.7723 81 69.9095V63.9923C81 58.0359 76.1822 53.1856 70.2389 53.1284ZM59.1367 48.3231V45.5554C59.1367 42.9073 61.2913 40.7528 63.9394 40.7528C66.5875 40.7528 68.742 42.9073 68.742 45.5554V48.3231C68.742 50.9712 66.5875 53.1257 63.9394 53.1257C61.2913 53.1257 59.1367 50.9712 59.1367 48.3231ZM41 29.6804C45.4802 29.6804 49.125 33.3253 49.125 37.8054V37.821H49.1183C46.5323 37.821 44.0211 37.072 41.8556 35.6551C41.3359 35.3148 40.6642 35.3148 40.1445 35.6551C37.9791 37.072 35.4677 37.821 32.8819 37.821H32.875V37.8054C32.875 33.3253 36.5198 29.6804 41 29.6804ZM32.875 45.0007V40.946H32.8817C35.742 40.946 38.5281 40.2046 41 38.7935C43.4719 40.2046 46.258 40.946 49.1183 40.946H49.125V45.0007C49.125 49.4809 45.4802 53.1257 41 53.1257C36.5198 53.1257 32.875 49.4809 32.875 45.0007ZM13.2578 45.5554C13.2578 42.9073 15.4123 40.7528 18.0605 40.7528C20.7086 40.7528 22.8631 42.9073 22.8631 45.5554V48.3231C22.8631 50.9712 20.7086 53.1257 18.0605 53.1257C15.4123 53.1257 13.2578 50.9712 13.2578 48.3231V45.5554ZM15.0891 68.347H4.125V63.9923C4.125 59.7237 7.59797 56.2507 11.8666 56.2507H21.6675C17.8962 59.0209 15.3681 63.3881 15.0891 68.347ZM33.5586 56.2507H39.4375V60.0007C39.4375 60.8635 40.1372 61.5632 41 61.5632C41.8628 61.5632 42.5625 60.8635 42.5625 60.0007V56.2507H48.4414H48.4648L41 74.3418L33.5352 56.2507H33.5586ZM63.8125 76.8757H43.335L51.8272 56.2951C58.5234 56.821 63.8125 62.4342 63.8125 69.2632V76.8757ZM77.875 68.347H66.9109C66.6319 63.3881 64.1037 59.0209 60.3325 56.2507H70.1334C74.402 56.2507 77.875 59.7237 77.875 63.9923V68.347Z" fill="url(#paint0_linear)"/>
<path d="M30.266 12.0383L33.9957 14.7358L32.5691 19.0939C32.1467 20.3844 32.5836 21.7339 33.6822 22.532C34.7807 23.3302 36.1992 23.3287 37.296 22.5281L40.9999 19.8245L44.7038 22.528C45.2532 22.9289 45.883 23.1295 46.5133 23.1295C47.1411 23.1295 47.7692 22.9303 48.3175 22.532C49.4161 21.7341 49.853 20.3844 49.4307 19.0938L48.0041 14.7358L51.7338 12.0383C52.8328 11.2434 53.2732 9.89594 52.8553 8.60547C52.4375 7.31516 51.2913 6.48141 49.9352 6.48141H45.3289L43.9208 2.12531C43.5032 0.834219 42.3569 0 40.9999 0C39.6428 0 38.4966 0.834219 38.0791 2.12547L36.671 6.48156H32.0647C30.7085 6.48156 29.5622 7.31531 29.1446 8.60563C28.7266 9.89594 29.1669 11.2434 30.266 12.0383ZM37.808 9.60641C38.4858 9.60641 39.0863 9.16937 39.2949 8.52453L41.0002 3.25031L42.7049 8.52453C42.9135 9.16937 43.5139 9.60641 44.1917 9.60641L49.7632 9.60688L45.2486 12.8717C44.6982 13.27 44.468 13.9783 44.6792 14.6241L46.4064 19.9019L41.921 16.628C41.6466 16.4277 41.3232 16.3275 40.9997 16.3275C40.6763 16.3275 40.3528 16.4277 40.0785 16.628L35.5925 19.9017L37.3202 14.6241C37.5316 13.9783 37.3014 13.27 36.7508 12.8717L32.2364 9.60656H37.808V9.60641Z" fill="url(#paint1_linear)"/>
<path d="M28.0312 76.875C27.6203 76.875 27.2172 77.042 26.9266 77.3328C26.6359 77.6236 26.4688 78.0266 26.4688 78.4375C26.4688 78.8484 26.6358 79.2516 26.9266 79.542C27.2172 79.8327 27.6203 80 28.0312 80C28.4422 80 28.8453 79.8328 29.1358 79.542C29.4266 79.2516 29.5938 78.8484 29.5938 78.4375C29.5938 78.0266 29.4266 77.6234 29.1358 77.3328C28.8453 77.042 28.4422 76.875 28.0312 76.875Z" fill="url(#paint2_linear)"/>
</g>
<defs>
<linearGradient id="paint0_linear" x1="-15.5234" y1="70.6288" x2="82.5981" y2="66.7252" gradientUnits="userSpaceOnUse">
<stop stop-color="#FF0000"/>
<stop offset="1" stop-color="#822EED"/>
</linearGradient>
<linearGradient id="paint1_linear" x1="24.0273" y1="19.0737" x2="53.515" y2="18.2598" gradientUnits="userSpaceOnUse">
<stop stop-color="#FF0000"/>
<stop offset="1" stop-color="#822EED"/>
</linearGradient>
<linearGradient id="paint2_linear" x1="25.8233" y1="79.452" x2="29.6595" y2="79.3501" gradientUnits="userSpaceOnUse">
<stop stop-color="#FF0000"/>
<stop offset="1" stop-color="#822EED"/>
</linearGradient>
<clipPath id="clip0">
<rect width="80" height="80" fill="white"/>
</clipPath>
</defs>
</svg>
